  0
SECTION
  2
HEADER
  9
$ACADVER
  1
AC1009
  9
$INSBASE
 10
0.0
 20
0.0
 30
0.0
  9
$EXTMIN
 10
-21.7392714044495214
 20
-62.2867990036280332
 30
0.0
  9
$EXTMAX
 10
135.0
 20
185.4918482667202966
 30
0.0
  9
$LIMMIN
 10
0.0
 20
0.0
  9
$LIMMAX
 10
420.0
 20
297.0
  9
$ORTHOMODE
 70
     0
  9
$REGENMODE
 70
     1
  9
$FILLMODE
 70
     1
  9
$QTEXTMODE
 70
     0
  9
$MIRRTEXT
 70
     1
  9
$DRAGMODE
 70
     2
  9
$LTSCALE
 40
1.0
  9
$OSMODE
 70
   551
  9
$ATTMODE
 70
     1
  9
$TEXTSIZE
 40
3.5
  9
$TRACEWID
 40
1.0
  9
$TEXTSTYLE
  7
STANDARD
  9
$CLAYER
  8
CUT2
  9
$CELTYPE
  6
BYLAYER
  9
$CECOLOR
 62
   256
  9
$DIMSCALE
 40
1.0
  9
$DIMASZ
 40
3.302
  9
$DIMEXO
 40
1.0
  9
$DIMDLI
 40
3.75
  9
$DIMRND
 40
0.0
  9
$DIMDLE
 40
0.0
  9
$DIMEXE
 40
1.0
  9
$DIMTP
 40
0.0
  9
$DIMTM
 40
0.0
  9
$DIMTXT
 40
3.5
  9
$DIMCEN
 40
2.5
  9
$DIMTSZ
 40
0.0
  9
$DIMTOL
 70
     0
  9
$DIMLIM
 70
     0
  9
$DIMTIH
 70
     1
  9
$DIMTOH
 70
     1
  9
$DIMSE1
 70
     0
  9
$DIMSE2
 70
     0
  9
$DIMTAD
 70
     1
  9
$DIMZIN
 70
     0
  9
$DIMBLK
  1

  9
$DIMASO
 70
     1
  9
$DIMSHO
 70
     1
  9
$DIMPOST
  1

  9
$DIMAPOST
  1

  9
$DIMALT
 70
     0
  9
$DIMALTD
 70
     3
  9
$DIMALTF
 40
0.0393700787
  9
$DIMLFAC
 40
1.0
  9
$DIMTOFL
 70
     1
  9
$DIMTVP
 40
0.0
  9
$DIMTIX
 70
     0
  9
$DIMSOXD
 70
     0
  9
$DIMSAH
 70
     0
  9
$DIMBLK1
  1

  9
$DIMBLK2
  1

  9
$DIMSTYLE
  2
ISO-25
  9
$DIMCLRD
 70
     0
  9
$DIMCLRE
 70
     0
  9
$DIMCLRT
 70
     0
  9
$DIMTFAC
 40
1.0
  9
$DIMGAP
 40
1.524
  9
$LUNITS
 70
     2
  9
$LUPREC
 70
     2
  9
$SKETCHINC
 40
1.0
  9
$FILLETRAD
 40
5.0
  9
$AUNITS
 70
     0
  9
$AUPREC
 70
     2
  9
$MENU
  1
.
  9
$ELEVATION
 40
0.0
  9
$PELEVATION
 40
0.0
  9
$THICKNESS
 40
0.0
  9
$LIMCHECK
 70
     0
  9
$BLIPMODE
 70
     0
  9
$CHAMFERA
 40
0.0
  9
$CHAMFERB
 40
0.0
  9
$SKPOLY
 70
     0
  9
$TDCREATE
 40
2458009.4740393520332873
  9
$TDUPDATE
 40
2458009.556180554907769
  9
$TDINDWG
 40
0.0566782523
  9
$TDUSRTIMER
 40
0.0566782523
  9
$USRTIMER
 70
     1
  9
$ANGBASE
 50
0.0
  9
$ANGDIR
 70
     0
  9
$PDMODE
 70
     0
  9
$PDSIZE
 40
-1.0
  9
$PLINEWID
 40
0.0
  9
$COORDS
 70
     1
  9
$SPLFRAME
 70
     0
  9
$SPLINETYPE
 70
     6
  9
$SPLINESEGS
 70
     8
  9
$ATTDIA
 70
     1
  9
$ATTREQ
 70
     1
  9
$HANDLING
 70
     1
  9
$HANDSEED
  5
37C
  9
$SURFTAB1
 70
     6
  9
$SURFTAB2
 70
     6
  9
$SURFTYPE
 70
     6
  9
$SURFU
 70
     6
  9
$SURFV
 70
     6
  9
$UCSNAME
  2

  9
$UCSORG
 10
0.0
 20
0.0
 30
0.0
  9
$UCSXDIR
 10
1.0
 20
0.0
 30
0.0
  9
$UCSYDIR
 10
0.0
 20
1.0
 30
0.0
  9
$PUCSNAME
  2

  9
$PUCSORG
 10
0.0
 20
0.0
 30
0.0
  9
$PUCSXDIR
 10
1.0
 20
0.0
 30
0.0
  9
$PUCSYDIR
 10
0.0
 20
1.0
 30
0.0
  9
$USERI1
 70
     0
  9
$USERI2
 70
     0
  9
$USERI3
 70
     0
  9
$USERI4
 70
     0
  9
$USERI5
 70
     0
  9
$USERR1
 40
0.0
  9
$USERR2
 40
0.0
  9
$USERR3
 40
0.0
  9
$USERR4
 40
0.0
  9
$USERR5
 40
0.0
  9
$WORLDVIEW
 70
     1
  9
$SHADEDGE
 70
     3
  9
$SHADEDIF
 70
    70
  9
$TILEMODE
 70
     1
  9
$MAXACTVP
 70
    64
  9
$PLIMCHECK
 70
     0
  9
$PEXTMIN
 10
1.0000000000000000E+20
 20
1.0000000000000000E+20
 30
1.0000000000000000E+20
  9
$PEXTMAX
 10
-1.0000000000000000E+20
 20
-1.0000000000000000E+20
 30
-1.0000000000000000E+20
  9
$PLIMMIN
 10
0.0
 20
0.0
  9
$PLIMMAX
 10
420.0
 20
297.0
  9
$UNITMODE
 70
     0
  9
$VISRETAIN
 70
     1
  9
$PLINEGEN
 70
     0
  9
$PSLTSCALE
 70
     1
  0
ENDSEC
  0
SECTION
  2
TABLES
  0
TABLE
  2
VPORT
 70
     1
  0
VPORT
  2
*ACTIVE
 70
     0
 10
0.0
 20
0.0
 11
1.0
 21
1.0
 12
2.078872235999369
 22
-0.2696783967495429
 13
0.0
 23
0.0
 14
10.0
 24
10.0
 15
10.0
 25
10.0
 16
0.0
 26
0.0
 36
1.0
 17
0.0
 27
0.0
 37
0.0
 40
5.0893995203294029
 41
1.661341853035144
 42
50.0
 43
0.0
 44
0.0
 50
0.0
 51
0.0
 71
     0
 72
   100
 73
     1
 74
     3
 75
     0
 76
     0
 77
     0
 78
     0
  0
ENDTAB
  0
TABLE
  2
LTYPE
 70
     7
  0
LTYPE
  2
CONTINUOUS
 70
     0
  3
Solid line
 72
    65
 73
     0
 40
0.0
  0
LTYPE
  2
HIDDEN
 70
     0
  3
Hidden __ __ __ __ __ __ __ __ __ __ __ __ __ __
 72
    65
 73
     2
 40
1.905
 49
1.27
 49
-0.635
  0
LTYPE
  2
PHANTOM
 70
     0
  3
Phantom ______  __  __  ______  __  __  ______
 72
    65
 73
     6
 40
12.6999999999999993
 49
6.3499999999999988
 49
-1.27
 49
1.27
 49
-1.27
 49
1.27
 49
-1.27
  0
LTYPE
  2
CENTER
 70
     0
  3
Center ____ _ ____ _ ____ _ ____ _ ____ _ ____
 72
    65
 73
     4
 40
10.1600000000000001
 49
6.3499999999999988
 49
-1.27
 49
1.27
 49
-1.27
  0
LTYPE
  2
CENTERX2
 70
     0
  3
Center (2x) ________  __  ________  __  _____
 72
    65
 73
     4
 40
20.3200000000000003
 49
12.6999999999999993
 49
-2.54
 49
2.54
 49
-2.54
  0
LTYPE
  2
DOT2
 70
     0
  3
Dot (.5x) ........................................
 72
    65
 73
     2
 40
0.635
 49
0.0
 49
-0.635
  0
ENDTAB
  0
TABLE
  2
LAYER
 70
     3
  0
LAYER
  2
0
 70
     0
 62
     7
  6
CONTINUOUS
  0
LAYER
  2
FOLD1
 70
     0
 62
     2
  6
CONTINUOUS
  0
LAYER
  2
CUT2
 70
     0
 62
     3
  6
CONTINUOUS
  0
ENDTAB
  0
TABLE
  2
STYLE
 70
     2
  0
STYLE
  2
STANDARD
 70
     0
 40
0.0
 41
1.0
 50
0.0
 71
     0
 42
3.5
  3
txt
  4

  0
STYLE
  2
ANNOTATIVE
 70
     0
 40
0.0
 41
1.0
 50
0.0
 71
     0
 42
0.2
  3
txt
  4

  0
ENDTAB
  0
TABLE
  2
VIEW
 70
     0
  0
ENDTAB
  0
TABLE
  2
UCS
 70
     0
  0
ENDTAB
  0
TABLE
  2
APPID
 70
     7
  0
APPID
  2
ACAD
 70
     0
  0
APPID
  2
ACADANNOTATIVE
 70
     0
  0
APPID
  2
ACAECLAYERSTANDARD
 70
     0
  0
APPID
  2
ACCMTRANSPARENCY
 70
     0
  0
APPID
  2
ACAD_EXEMPT_FROM_CAD_STANDARDS
 70
     0
  0
APPID
  2
ACAD_NAV_VCDISPLAY
 70
     0
  0
APPID
  2
ACAD_MLEADERVER
 70
     0
  0
ENDTAB
  0
TABLE
  2
DIMSTYLE
 70
     4
  0
DIMSTYLE
  2
STANDARD
 70
     0
  3

  4

  5

  6

  7

 40
1.0
 41
0.18
 42
0.0625
 43
0.38
 44
0.18
 45
0.0
 46
0.0
 47
0.0
 48
0.0
140
0.18
141
0.09
142
0.0
143
25.3999999999999986
144
1.0
145
0.0
146
1.0
147
0.09
 71
     0
 72
     0
 73
     1
 74
     1
 75
     0
 76
     0
 77
     0
 78
     0
170
     0
171
     2
172
     0
173
     0
174
     0
175
     0
176
     0
177
     0
178
     0
  0
DIMSTYLE
  2
ANNOTATIVE
 70
     0
  3

  4

  5

  6

  7

 40
1.0
 41
0.18
 42
0.0625
 43
0.38
 44
0.18
 45
0.0
 46
0.0
 47
0.0
 48
0.0
140
0.18
141
0.09
142
0.0
143
25.3999999999999986
144
1.0
145
0.0
146
1.0
147
0.09
 71
     0
 72
     0
 73
     1
 74
     1
 75
     0
 76
     0
 77
     0
 78
     0
170
     0
171
     2
172
     0
173
     0
174
     0
175
     0
176
     0
177
     0
178
     0
  0
DIMSTYLE
  2
ISO-25
 70
     0
  3

  4

  5

  6

  7

 40
1.0
 41
2.5
 42
0.625
 43
3.75
 44
1.25
 45
0.0
 46
0.0
 47
0.0
 48
0.0
140
2.5
141
2.5
142
0.0
143
0.0393700787
144
1.0
145
0.0
146
1.0
147
0.625
 71
     0
 72
     0
 73
     0
 74
     0
 75
     0
 76
     0
 77
     1
 78
     8
170
     0
171
     3
172
     1
173
     0
174
     0
175
     0
176
     0
177
     0
178
     0
  0
ENDTAB
  0
ENDSEC
  0
SECTION
  2
BLOCKS
  0
BLOCK
  8
0
  2
$MODEL_SPACE
 70
     0
 10
0.0
 20
0.0
 30
0.0
  3
$MODEL_SPACE
  1

  0
ENDBLK
  5
113
  8
0
  0
BLOCK
 67
     1
  8
0
  2
$PAPER_SPACE
 70
     0
 10
0.0
 20
0.0
 30
0.0
  3
$PAPER_SPACE
  1

  0
ENDBLK
  5
10F
 67
     1
  8
0
  0
ENDSEC
  0
SECTION
  2
ENTITIES
  0
POLYLINE
  5
12E
  8
FOLD1
  6
CONTINUOUS
 66
     1
 10
0.0
 20
0.0
 30
0.0
  0
VERTEX
  5
337
  8
FOLD1
  6
CONTINUOUS
 10
-0.0000000000000051
 20
55.0000000000000071
 30
0.0
  0
VERTEX
  5
338
  8
FOLD1
  6
CONTINUOUS
 10
40.0
 20
55.0000000000000071
 30
0.0
  0
VERTEX
  5
339
  8
FOLD1
  6
CONTINUOUS
 10
95.0
 20
55.0000000000000071
 30
0.0
  0
VERTEX
  5
33A
  8
FOLD1
  6
CONTINUOUS
 10
135.0
 20
55.0000000000000071
 30
0.0
  0
SEQEND
  5
33B
  8
FOLD1
  6
CONTINUOUS
  0
POLYLINE
  5
131
  8
FOLD1
  6
CONTINUOUS
 66
     1
 10
0.0
 20
0.0
 30
0.0
  0
VERTEX
  5
33C
  8
FOLD1
  6
CONTINUOUS
 10
-0.0000000000000051
 20
100.0
 30
0.0
  0
VERTEX
  5
33D
  8
FOLD1
  6
CONTINUOUS
 10
40.0
 20
100.0
 30
0.0
  0
VERTEX
  5
33E
  8
FOLD1
  6
CONTINUOUS
 10
95.0
 20
100.0
 30
0.0
  0
VERTEX
  5
33F
  8
FOLD1
  6
CONTINUOUS
 10
135.0
 20
100.0
 30
0.0
  0
SEQEND
  5
340
  8
FOLD1
  6
CONTINUOUS
  0
POLYLINE
  5
132
  8
FOLD1
  6
CONTINUOUS
 66
     1
 10
0.0
 20
0.0
 30
0.0
  0
VERTEX
  5
341
  8
FOLD1
  6
CONTINUOUS
 10
40.0
 20
55.0000000000000071
 30
0.0
  0
VERTEX
  5
342
  8
FOLD1
  6
CONTINUOUS
 10
40.0
 20
100.0
 30
0.0
  0
SEQEND
  5
343
  8
FOLD1
  6
CONTINUOUS
  0
POLYLINE
  5
133
  8
FOLD1
  6
CONTINUOUS
 66
     1
 10
0.0
 20
0.0
 30
0.0
  0
VERTEX
  5
344
  8
FOLD1
  6
CONTINUOUS
 10
95.0
 20
55.0000000000000071
 30
0.0
  0
VERTEX
  5
345
  8
FOLD1
  6
CONTINUOUS
 10
95.0
 20
100.0
 30
0.0
  0
SEQEND
  5
346
  8
FOLD1
  6
CONTINUOUS
  0
POLYLINE
  5
134
  8
FOLD1
  6
CONTINUOUS
 66
     1
 10
0.0
 20
0.0
 30
0.0
  0
VERTEX
  5
347
  8
FOLD1
  6
CONTINUOUS
 10
95.0
 20
185.0
 30
0.0
  0
VERTEX
  5
348
  8
FOLD1
  6
CONTINUOUS
 10
95.0
 20
140.0
 30
0.0
  0
VERTEX
  5
349
  8
FOLD1
  6
CONTINUOUS
 10
40.0
 20
140.0
 30
0.0
  0
VERTEX
  5
34A
  8
FOLD1
  6
CONTINUOUS
 10
40.0
 20
185.0
 30
0.0
  0
SEQEND
  5
34B
  8
FOLD1
  6
CONTINUOUS
  0
POLYLINE
  5
135
  8
FOLD1
  6
CONTINUOUS
 66
     1
 10
0.0
 20
0.0
 30
0.0
  0
VERTEX
  5
34C
  8
FOLD1
  6
CONTINUOUS
 10
40.0
 20
15.0000000000000107
 30
0.0
  0
VERTEX
  5
34D
  8
FOLD1
  6
CONTINUOUS
 10
95.0
 20
15.0000000000000107
 30
0.0
  0
SEQEND
  5
34E
  8
FOLD1
  6
CONTINUOUS
  0
POLYLINE
  5
136
  8
CUT2
  6
CONTINUOUS
 66
     1
 10
0.0
 20
0.0
 30
0.0
 70
     1
  0
VERTEX
  5
34F
  8
CUT2
  6
CONTINUOUS
 10
40.0
 20
15.0000000000000107
 30
0.0
  0
VERTEX
  5
350
  8
CUT2
  6
CONTINUOUS
 10
43.0262436948999891
 20
3.7059047745000142
 30
0.0
 42
0.3394542588633756
  0
VERTEX
  5
351
  8
CUT2
  6
CONTINUOUS
 10
47.8558728263999882
 20
0.0000000000000133
 30
0.0
  0
VERTEX
  5
352
  8
CUT2
  6
CONTINUOUS
 10
87.1441271736000118
 20
0.0000000000000142
 30
0.0
 42
0.3394542588633759
  0
VERTEX
  5
353
  8
CUT2
  6
CONTINUOUS
 10
91.9737563050453559
 20
3.705904774487407
 30
0.0
  0
VERTEX
  5
354
  8
CUT2
  6
CONTINUOUS
 10
95.0
 20
15.0000000000000107
 30
0.0
  0
VERTEX
  5
355
  8
CUT2
  6
CONTINUOUS
 10
95.0
 20
55.0000000000000071
 30
0.0
  0
VERTEX
  5
356
  8
CUT2
  6
CONTINUOUS
 10
95.7380350054999951
 20
46.5642212863000111
 30
0.0
 42
0.3888787318529896
  0
VERTEX
  5
357
  8
CUT2
  6
CONTINUOUS
 10
100.7190084958999989
 20
41.9999999999967173
 30
0.0
  0
VERTEX
  5
358
  8
CUT2
  6
CONTINUOUS
 10
129.2809915041000011
 20
42.0000000000000071
 30
0.0
 42
0.3888787318529896
  0
VERTEX
  5
359
  8
CUT2
  6
CONTINUOUS
 10
134.2619649945492029
 20
46.5642212862625584
 30
0.0
  0
VERTEX
  5
35A
  8
CUT2
  6
CONTINUOUS
 10
135.0
 20
55.0000000000000071
 30
0.0
  0
VERTEX
  5
35B
  8
CUT2
  6
CONTINUOUS
 10
135.0
 20
100.0
 30
0.0
  0
VERTEX
  5
35C
  8
CUT2
  6
CONTINUOUS
 10
129.4644660940672054
 20
105.5355339059326951
 30
0.0
 42
0.198912367379658
  0
VERTEX
  5
35D
  8
CUT2
  6
CONTINUOUS
 10
125.9289321881344961
 20
107.0
 30
0.0
  0
VERTEX
  5
35E
  8
CUT2
  6
CONTINUOUS
 10
104.0710678118655039
 20
107.0
 30
0.0
 42
0.198912367379658
  0
VERTEX
  5
35F
  8
CUT2
  6
CONTINUOUS
 10
100.5355339059326951
 20
105.5355339059326951
 30
0.0
  0
VERTEX
  5
360
  8
CUT2
  6
CONTINUOUS
 10
95.0
 20
100.0
 30
0.0
  0
VERTEX
  5
361
  8
CUT2
  6
CONTINUOUS
 10
95.0
 20
140.0
 30
0.0
  0
VERTEX
  5
362
  8
CUT2
  6
CONTINUOUS
 10
100.5355339059326951
 20
145.5355339059327093
 30
0.0
 42
0.198912367379658
  0
VERTEX
  5
363
  8
CUT2
  6
CONTINUOUS
 10
102.0
 20
149.0710678118655039
 30
0.0
  0
VERTEX
  5
364
  8
CUT2
  6
CONTINUOUS
 10
102.0
 20
175.9289321881344961
 30
0.0
 42
0.198912367379658
  0
VERTEX
  5
365
  8
CUT2
  6
CONTINUOUS
 10
100.5355339059326951
 20
179.4644660940672054
 30
0.0
  0
VERTEX
  5
366
  8
CUT2
  6
CONTINUOUS
 10
95.0
 20
185.0
 30
0.0
  0
VERTEX
  5
367
  8
CUT2
  6
CONTINUOUS
 10
77.5
 20
185.0
 30
0.0
 42
-1.0037804630251941
  0
VERTEX
  5
368
  8
CUT2
  6
CONTINUOUS
 10
57.5000000000025082
 20
184.9999999999810996
 30
0.0
  0
VERTEX
  5
369
  8
CUT2
  6
CONTINUOUS
 10
40.0
 20
185.0
 30
0.0
  0
VERTEX
  5
36A
  8
CUT2
  6
CONTINUOUS
 10
34.4644660940672622
 20
179.4644660940672054
 30
0.0
 42
0.198912367379658
  0
VERTEX
  5
36B
  8
CUT2
  6
CONTINUOUS
 10
32.9999999999999929
 20
175.9289321881344961
 30
0.0
  0
VERTEX
  5
36C
  8
CUT2
  6
CONTINUOUS
 10
32.9999999999999929
 20
149.0710678118655039
 30
0.0
 42
0.198912367379658
  0
VERTEX
  5
36D
  8
CUT2
  6
CONTINUOUS
 10
34.4644660940672622
 20
145.5355339059327093
 30
0.0
  0
VERTEX
  5
36E
  8
CUT2
  6
CONTINUOUS
 10
40.0
 20
140.0
 30
0.0
  0
VERTEX
  5
36F
  8
CUT2
  6
CONTINUOUS
 10
40.0
 20
100.0
 30
0.0
  0
VERTEX
  5
370
  8
CUT2
  6
CONTINUOUS
 10
34.4644660940672622
 20
105.5355339059326951
 30
0.0
 42
0.198912367379658
  0
VERTEX
  5
371
  8
CUT2
  6
CONTINUOUS
 10
30.9289321881345209
 20
107.0
 30
0.0
  0
VERTEX
  5
372
  8
CUT2
  6
CONTINUOUS
 10
9.0710678118654702
 20
107.0
 30
0.0
 42
0.198912367379658
  0
VERTEX
  5
373
  8
CUT2
  6
CONTINUOUS
 10
5.5355339059327324
 20
105.5355339059326951
 30
0.0
  0
VERTEX
  5
374
  8
CUT2
  6
CONTINUOUS
 10
-0.0000000000000051
 20
100.0
 30
0.0
  0
VERTEX
  5
375
  8
CUT2
  6
CONTINUOUS
 10
-0.0000000000000051
 20
55.0000000000000071
 30
0.0
  0
VERTEX
  5
376
  8
CUT2
  6
CONTINUOUS
 10
0.738035005499995
 20
46.5642212863000111
 30
0.0
 42
0.3888787318529896
  0
VERTEX
  5
377
  8
CUT2
  6
CONTINUOUS
 10
5.7190084958999936
 20
41.9999999999999432
 30
0.0
  0
VERTEX
  5
378
  8
CUT2
  6
CONTINUOUS
 10
34.2809915041000011
 20
42.0000000000000071
 30
0.0
 42
0.3888787318529896
  0
VERTEX
  5
379
  8
CUT2
  6
CONTINUOUS
 10
39.2619649945590012
 20
46.5642212862616987
 30
0.0
  0
VERTEX
  5
37A
  8
CUT2
  6
CONTINUOUS
 10
40.0
 20
55.0000000000000071
 30
0.0
  0
SEQEND
  5
37B
  8
CUT2
  6
CONTINUOUS
  0
ENDSEC
  0
EOF
