  0
SECTION
  2
HEADER
  9
$ACADVER
  1
AC1009
  9
$INSBASE
 10
0.0
 20
0.0
 30
0.0
  9
$EXTMIN
 10
14.9827825689847405
 20
-0.5271028055574334
 30
0.0
  9
$EXTMAX
 10
914.8131163902146454
 20
231.4903604496900016
 30
0.0
  9
$LIMMIN
 10
0.0
 20
0.0
  9
$LIMMAX
 10
420.0
 20
297.0
  9
$ORTHOMODE
 70
     0
  9
$REGENMODE
 70
     1
  9
$FILLMODE
 70
     1
  9
$QTEXTMODE
 70
     0
  9
$MIRRTEXT
 70
     0
  9
$DRAGMODE
 70
     2
  9
$LTSCALE
 40
1.0
  9
$OSMODE
 70
   551
  9
$ATTMODE
 70
     1
  9
$TEXTSIZE
 40
2.5
  9
$TRACEWID
 40
1.0
  9
$TEXTSTYLE
  7
STANDARD
  9
$CLAYER
  8
TOOL_1
  9
$CELTYPE
  6
BYLAYER
  9
$CECOLOR
 62
   256
  9
$DIMSCALE
 40
1.0
  9
$DIMASZ
 40
2.5
  9
$DIMEXO
 40
0.625
  9
$DIMDLI
 40
3.75
  9
$DIMRND
 40
0.0
  9
$DIMDLE
 40
0.0
  9
$DIMEXE
 40
1.25
  9
$DIMTP
 40
0.0
  9
$DIMTM
 40
0.0
  9
$DIMTXT
 40
2.5
  9
$DIMCEN
 40
2.5
  9
$DIMTSZ
 40
0.0
  9
$DIMTOL
 70
     0
  9
$DIMLIM
 70
     0
  9
$DIMTIH
 70
     0
  9
$DIMTOH
 70
     0
  9
$DIMSE1
 70
     0
  9
$DIMSE2
 70
     0
  9
$DIMTAD
 70
     1
  9
$DIMZIN
 70
     8
  9
$DIMBLK
  1

  9
$DIMASO
 70
     1
  9
$DIMSHO
 70
     1
  9
$DIMPOST
  1

  9
$DIMAPOST
  1

  9
$DIMALT
 70
     0
  9
$DIMALTD
 70
     3
  9
$DIMALTF
 40
0.03937007874016
  9
$DIMLFAC
 40
1.0
  9
$DIMTOFL
 70
     1
  9
$DIMTVP
 40
0.0
  9
$DIMTIX
 70
     0
  9
$DIMSOXD
 70
     0
  9
$DIMSAH
 70
     0
  9
$DIMBLK1
  1

  9
$DIMBLK2
  1

  9
$DIMSTYLE
  2
ISO-25
  9
$DIMCLRD
 70
     0
  9
$DIMCLRE
 70
     0
  9
$DIMCLRT
 70
     0
  9
$DIMTFAC
 40
1.0
  9
$DIMGAP
 40
0.625
  9
$LUNITS
 70
     2
  9
$LUPREC
 70
     4
  9
$SKETCHINC
 40
1.0
  9
$FILLETRAD
 40
0.0
  9
$AUNITS
 70
     0
  9
$AUPREC
 70
     0
  9
$MENU
  1
.
  9
$ELEVATION
 40
0.0
  9
$PELEVATION
 40
0.0
  9
$THICKNESS
 40
0.0
  9
$LIMCHECK
 70
     0
  9
$BLIPMODE
 70
     0
  9
$CHAMFERA
 40
0.0
  9
$CHAMFERB
 40
0.0
  9
$SKPOLY
 70
     0
  9
$TDCREATE
 40
2457941.4806828708387911
  9
$TDUPDATE
 40
2457941.5052430559881032
  9
$TDINDWG
 40
0.0245717593
  9
$TDUSRTIMER
 40
0.0245717593
  9
$USRTIMER
 70
     1
  9
$ANGBASE
 50
0.0
  9
$ANGDIR
 70
     0
  9
$PDMODE
 70
     0
  9
$PDSIZE
 40
0.0
  9
$PLINEWID
 40
0.0
  9
$COORDS
 70
     1
  9
$SPLFRAME
 70
     0
  9
$SPLINETYPE
 70
     6
  9
$SPLINESEGS
 70
     8
  9
$ATTDIA
 70
     1
  9
$ATTREQ
 70
     1
  9
$HANDLING
 70
     1
  9
$HANDSEED
  5
475
  9
$SURFTAB1
 70
     6
  9
$SURFTAB2
 70
     6
  9
$SURFTYPE
 70
     6
  9
$SURFU
 70
     6
  9
$SURFV
 70
     6
  9
$UCSNAME
  2

  9
$UCSORG
 10
0.0
 20
0.0
 30
0.0
  9
$UCSXDIR
 10
1.0
 20
0.0
 30
0.0
  9
$UCSYDIR
 10
0.0
 20
1.0
 30
0.0
  9
$PUCSNAME
  2

  9
$PUCSORG
 10
0.0
 20
0.0
 30
0.0
  9
$PUCSXDIR
 10
1.0
 20
0.0
 30
0.0
  9
$PUCSYDIR
 10
0.0
 20
1.0
 30
0.0
  9
$USERI1
 70
     0
  9
$USERI2
 70
     0
  9
$USERI3
 70
     0
  9
$USERI4
 70
     0
  9
$USERI5
 70
     0
  9
$USERR1
 40
0.0
  9
$USERR2
 40
0.0
  9
$USERR3
 40
0.0
  9
$USERR4
 40
0.0
  9
$USERR5
 40
0.0
  9
$WORLDVIEW
 70
     1
  9
$SHADEDGE
 70
     3
  9
$SHADEDIF
 70
    70
  9
$TILEMODE
 70
     1
  9
$MAXACTVP
 70
    64
  9
$PLIMCHECK
 70
     0
  9
$PEXTMIN
 10
0.0
 20
0.0
 30
0.0
  9
$PEXTMAX
 10
0.0
 20
0.0
 30
0.0
  9
$PLIMMIN
 10
0.0
 20
0.0
  9
$PLIMMAX
 10
12.0
 20
9.0
  9
$UNITMODE
 70
     0
  9
$VISRETAIN
 70
     1
  9
$PLINEGEN
 70
     0
  9
$PSLTSCALE
 70
     1
  0
ENDSEC
  0
SECTION
  2
TABLES
  0
TABLE
  2
VPORT
 70
     1
  0
VPORT
  2
*ACTIVE
 70
     0
 10
0.0
 20
0.0
 11
1.0
 21
1.0
 12
116.9056577910314019
 22
6.2909989971479661
 13
0.0
 23
0.0
 14
10.0
 24
10.0
 15
10.0
 25
10.0
 16
0.0
 26
0.0
 36
1.0
 17
0.0
 27
0.0
 37
0.0
 40
261.8945533847714842
 41
1.6613418530351429
 42
50.0
 43
0.0
 44
0.0
 50
0.0
 51
0.0
 71
     0
 72
  1000
 73
     1
 74
     3
 75
     0
 76
     1
 77
     0
 78
     0
  0
ENDTAB
  0
TABLE
  2
LTYPE
 70
     2
  0
LTYPE
  2
CONTINUOUS
 70
     0
  3
Solid line
 72
    65
 73
     0
 40
0.0
  0
ENDTAB
  0
TABLE
  2
LAYER
 70
     6
  0
LAYER
  2
0
 70
     0
 62
     7
  6
CONTINUOUS
  0
LAYER
  2
TOOL_1
 70
     0
 62
     1
  6
CONTINUOUS
  0
LAYER
  2
TOOL_2
 70
     0
 62
     2
  6
CONTINUOUS
  0
LAYER
  2
TOOL_3
 70
     0
 62
     3
  6
CONTINUOUS
  0
LAYER
  2
TOOL_4
 70
     0
 62
     4
  6
CONTINUOUS
  0
LAYER
  2
TOOL_5
 70
     0
 62
     5
  6
CONTINUOUS
  0
ENDTAB
  0
TABLE
  2
STYLE
 70
     2
  0
STYLE
  2
STANDARD
 70
     0
 40
0.0
 41
1.0
 50
0.0
 71
     0
 42
2.5
  3
txt
  4

  0
STYLE
  2
ANNOTATIVE
 70
     0
 40
0.0
 41
1.0
 50
0.0
 71
     0
 42
2.5
  3
txt
  4

  0
ENDTAB
  0
TABLE
  2
VIEW
 70
     0
  0
ENDTAB
  0
TABLE
  2
UCS
 70
     0
  0
ENDTAB
  0
TABLE
  2
APPID
 70
    11
  0
APPID
  2
ACAD
 70
     0
  0
APPID
  2
ACAD_PSEXT
 70
     0
  0
APPID
  2
ACADANNOPO
 70
     0
  0
APPID
  2
ACADANNOTATIVE
 70
     0
  0
APPID
  2
ACAD_DSTYLE_DIMJAG
 70
     0
  0
APPID
  2
ACAD_DSTYLE_DIMTALN
 70
     0
  0
APPID
  2
ACAD_MLEADERVER
 70
     0
  0
APPID
  2
ACAD_NAV_VCDISPLAY
 70
     0
  0
APPID
  2
ACAD_EXEMPT_FROM_CAD_STANDARDS
 70
     0
  0
APPID
  2
ACAECLAYERSTANDARD
 70
     0
  0
APPID
  2
ACCMTRANSPARENCY
 70
     0
  0
ENDTAB
  0
TABLE
  2
DIMSTYLE
 70
     4
  0
DIMSTYLE
  2
STANDARD
 70
     0
  3

  4

  5

  6

  7

 40
1.0
 41
0.18
 42
0.0625
 43
0.38
 44
0.18
 45
0.0
 46
0.0
 47
0.0
 48
0.0
140
0.18
141
0.09
142
0.0
143
25.3999999999999986
144
1.0
145
0.0
146
1.0
147
0.09
 71
     0
 72
     0
 73
     1
 74
     1
 75
     0
 76
     0
 77
     0
 78
     0
170
     0
171
     2
172
     0
173
     0
174
     0
175
     0
176
     0
177
     0
178
     0
  0
DIMSTYLE
  2
ANNOTATIVE
 70
     0
  3

  4

  5

  6

  7

 40
0.0
 41
2.5
 42
0.625
 43
3.75
 44
1.25
 45
0.0
 46
0.0
 47
0.0
 48
0.0
140
2.5
141
2.5
142
0.0
143
0.03937007874016
144
1.0
145
0.0
146
1.0
147
0.625
 71
     0
 72
     0
 73
     0
 74
     0
 75
     0
 76
     0
 77
     1
 78
     8
170
     0
171
     3
172
     1
173
     0
174
     0
175
     0
176
     0
177
     0
178
     0
  0
DIMSTYLE
  2
ISO-25
 70
     0
  3

  4

  5

  6

  7

 40
1.0
 41
2.5
 42
0.625
 43
3.75
 44
1.25
 45
0.0
 46
0.0
 47
0.0
 48
0.0
140
2.5
141
2.5
142
0.0
143
0.03937007874016
144
1.0
145
0.0
146
1.0
147
0.625
 71
     0
 72
     0
 73
     0
 74
     0
 75
     0
 76
     0
 77
     1
 78
     8
170
     0
171
     3
172
     1
173
     0
174
     0
175
     0
176
     0
177
     0
178
     0
  0
ENDTAB
  0
ENDSEC
  0
SECTION
  2
BLOCKS
  0
BLOCK
  8
0
  2
$MODEL_SPACE
 70
     0
 10
0.0
 20
0.0
 30
0.0
  3
$MODEL_SPACE
  1

  0
ENDBLK
  5
21
  8
0
  0
BLOCK
 67
     1
  8
0
  2
$PAPER_SPACE
 70
     0
 10
0.0
 20
0.0
 30
0.0
  3
$PAPER_SPACE
  1

  0
ENDBLK
  5
D5
 67
     1
  8
0
  0
ENDSEC
  0
SECTION
  2
ENTITIES
  0
POLYLINE
  5
269
  8
TOOL_1
 66
     1
 10
0.0
 20
0.0
 30
0.0
  0
VERTEX
  5
44B
  8
TOOL_1
 10
22.8976818067522991
 20
5.146904042942877
 30
0.0
  0
VERTEX
  5
44C
  8
TOOL_1
 10
24.9903097654683215
 20
28.730857093923909
 30
0.0
  0
VERTEX
  5
44D
  8
TOOL_1
 10
17.5606525582584005
 20
23.0765629281448099
 30
0.0
  0
SEQEND
  5
44E
  8
TOOL_1
  0
POLYLINE
  5
271
  8
TOOL_2
 66
     1
 10
0.0
 20
0.0
 30
0.0
  0
VERTEX
  5
452
  8
TOOL_2
 10
30.7603493741023506
 20
23.2260942606599912
 30
0.0
  0
VERTEX
  5
453
  8
TOOL_2
 10
40.8025638956326873
 20
28.4935397296086101
 30
0.0
  0
VERTEX
  5
454
  8
TOOL_2
 10
49.0550767618584302
 20
23.4248659458314812
 30
0.0
  0
VERTEX
  5
455
  8
TOOL_2
 10
49.0550767618584302
 20
15.7721621162010006
 30
0.0
  0
VERTEX
  5
456
  8
TOOL_2
 10
40.8025638956326873
 20
12.6912035554348694
 30
0.0
  0
VERTEX
  5
457
  8
TOOL_2
 10
29.666642742547161
 20
4.8397285059768942
 30
0.0
  0
VERTEX
  5
458
  8
TOOL_2
 10
48.1602261274800014
 20
4.8397285059768942
 30
0.0
  0
SEQEND
  5
459
  8
TOOL_2
  0
POLYLINE
  5
273
  8
TOOL_3
 66
     1
 10
0.0
 20
0.0
 30
0.0
  0
VERTEX
  5
45A
  8
TOOL_3
 10
56.9098784068260883
 20
24.9156521885856783
 30
0.0
  0
VERTEX
  5
45B
  8
TOOL_3
 10
61.2847045464991425
 20
27.5990678443528701
 30
0.0
  0
VERTEX
  5
45C
  8
TOOL_3
 10
70.929207846771348
 20
27.5990678443528701
 30
0.0
  0
VERTEX
  5
45D
  8
TOOL_3
 10
73.7131883283166047
 20
18.6543492244676514
 30
0.0
  0
VERTEX
  5
45E
  8
TOOL_3
 10
68.642367164894182
 20
15.5733906637015398
 30
0.0
  0
VERTEX
  5
45F
  8
TOOL_3
 10
63.7704016121007911
 20
15.5733906637015398
 30
0.0
  0
VERTEX
  5
460
  8
TOOL_3
 10
73.0171933045672432
 20
13.3869039881910901
 30
0.0
  0
VERTEX
  5
461
  8
TOOL_3
 10
73.0171933045672432
 20
7.721915381571538
 30
0.0
  0
VERTEX
  5
462
  8
TOOL_3
 10
68.2446555570883646
 20
4.4421853683058981
 30
0.0
  0
VERTEX
  5
463
  8
TOOL_3
 10
59.3955750858800613
 20
4.4421853683058981
 30
0.0
  0
VERTEX
  5
464
  8
TOOL_3
 10
55.6173161646418492
 20
8.119458519242535
 30
0.0
  0
SEQEND
  5
465
  8
TOOL_3
  0
POLYLINE
  5
274
  8
TOOL_4
 66
     1
 10
0.0
 20
0.0
 30
0.0
  0
VERTEX
  5
466
  8
TOOL_4
 10
87.0365227445124958
 20
27.5990678443528701
 30
0.0
  0
VERTEX
  5
467
  8
TOOL_4
 10
79.0822932942303538
 20
13.9832185783615692
 30
0.0
  0
VERTEX
  5
468
  8
TOOL_4
 10
90.3176422526303639
 20
13.9832185783615692
 30
0.0
  0
SEQEND
  5
469
  8
TOOL_4
  0
LINE
  5
275
  8
TOOL_4
 10
88.130228989519992
 20
15.7721621162010006
 30
0.0
 11
86.9370945526502652
 21
2.951398892879717
 31
0.0
  0
POLYLINE
  5
276
  8
TOOL_5
 66
     1
 10
0.0
 20
0.0
 30
0.0
  0
VERTEX
  5
46A
  8
TOOL_5
 10
100.4592849660229064
 20
27.0027532541823696
 30
0.0
  0
VERTEX
  5
46B
  8
TOOL_5
 10
99.4650061397822753
 20
13.3869039881910901
 30
0.0
  0
VERTEX
  5
46C
  8
TOOL_5
 10
106.3255289585092953
 20
16.0703194112862811
 30
0.0
  0
VERTEX
  5
46D
  8
TOOL_5
 10
114.7768978219118026
 20
12.8899750079343605
 30
0.0
  0
VERTEX
  5
46E
  8
TOOL_5
 10
114.7768978219118026
 20
4.3427995257201566
 30
0.0
  0
VERTEX
  5
46F
  8
TOOL_5
 10
106.3255289585092953
 20
-0.5271028055574334
 30
0.0
  0
VERTEX
  5
470
  8
TOOL_5
 10
99.067294531976458
 20
3.945256620721163
 30
0.0
  0
SEQEND
  5
471
  8
TOOL_5
  0
POLYLINE
  5
277
  8
TOOL_5
 66
     1
 10
0.0
 20
0.0
 30
0.0
  0
VERTEX
  5
472
  8
TOOL_5
 10
100.4592849660229064
 20
27.0027532541823696
 30
0.0
  0
VERTEX
  5
473
  8
TOOL_5
 10
116.1688878694104972
 20
27.0027532541823696
 30
0.0
  0
SEQEND
  5
474
  8
TOOL_5
  0
LINE
  5
27C
  8
TOOL_1
 10
134.279363356193187
 20
4.6515327560113171
 30
0.0
 11
133.9810799402496002
 21
23.6758078065720312
 31
0.0
  0
LINE
  5
27D
  8
TOOL_2
 10
182.4585659244411033
 20
17.2505183588779083
 30
0.0
 11
189.4185165484825859
 21
21.1265629623140292
 31
0.0
  0
LINE
  5
27E
  8
TOOL_3
 10
164.0874820841640087
 20
17.0057355472666707
 30
0.0
 11
170.4508654897705924
 21
20.8817801507027916
 31
0.0
  0
LINE
  5
27F
  8
TOOL_3
 10
170.4508654897705924
 20
20.8817801507027916
 30
0.0
 11
177.3113886950453093
 21
16.1112636620109413
 31
0.0
  0
LINE
  5
280
  8
TOOL_4
 10
207.868304622642313
 20
18.0003094771352607
 30
0.0
 11
203.6923340935983049
 21
8.9562052473363494
 31
0.0
  0
LINE
  5
281
  8
TOOL_5
 10
143.495779102525006
 20
20.6668359479979387
 30
0.0
 11
143.495779102525006
 21
10.4301025378580192
 31
0.0
  0
LINE
  5
282
  8
TOOL_1
 10
133.9810799402496002
 20
23.6758078065720312
 30
0.0
 11
129.4073978033997889
 21
20.0979202655491598
 31
0.0
  0
LINE
  5
283
  8
TOOL_3
 10
177.3113886950453093
 20
16.1112636620109413
 30
0.0
 11
170.5502936816328088
 21
10.8438181930623792
 31
0.0
  0
LINE
  5
284
  8
TOOL_3
 10
170.5502936816328088
 20
10.8438181930623792
 30
0.0
 11
177.0131048925539972
 21
8.1604027699672166
 31
0.0
  0
LINE
  5
285
  8
TOOL_2
 10
189.4185165484825859
 20
21.1265629623140292
 30
0.0
 11
195.6824721487747922
 21
15.5609604309522194
 31
0.0
  0
LINE
  5
286
  8
TOOL_2
 10
195.6824721487747922
 20
15.5609604309522194
 30
0.0
 11
195.6824721487747922
 21
10.0947435095041502
 31
0.0
  0
LINE
  5
287
  8
TOOL_4
 10
203.6923340935983049
 20
8.9562052473363494
 30
0.0
 11
212.8396979807502021
 21
8.3598906571658453
 31
0.0
  0
LINE
  5
288
  8
TOOL_5
 10
143.495779102525006
 20
20.6668359479979387
 30
0.0
 11
156.4214019109151081
 21
20.6668359479979387
 31
0.0
  0
LINE
  5
289
  8
TOOL_5
 10
143.495779102525006
 20
10.4301025378580192
 30
0.0
 11
150.9528691396868112
 21
12.1196604657837703
 31
0.0
  0
LINE
  5
28A
  8
TOOL_2
 10
195.6824721487747922
 20
10.0947435095041502
 30
0.0
 11
189.6173721591117101
 21
6.1193130634822648
 31
0.0
  0
LINE
  5
28B
  8
TOOL_2
 10
189.6173721591117101
 20
6.1193130634822648
 30
0.0
 11
182.7568493403846901
 21
3.833440545386122
 31
0.0
  0
LINE
  5
28C
  8
TOOL_3
 10
177.0131048925539972
 20
8.1604027699672166
 30
0.0
 11
169.7548704660212024
 21
3.9862006387738451
 31
0.0
  0
LINE
  5
28D
  8
TOOL_3
 10
169.7548704660212024
 20
3.9862006387738451
 30
0.0
 11
161.8006410157389894
 21
7.1665450421257182
 31
0.0
  0
LINE
  5
28E
  8
TOOL_5
 10
150.9528691396868112
 20
12.1196604657837703
 30
0.0
 11
157.3162525452935938
 21
7.4485295870056634
 31
0.0
  0
LINE
  5
28F
  8
TOOL_5
 10
157.3162525452935938
 20
7.4485295870056634
 30
0.0
 11
154.1345608424902025
 21
3.075556003312832
 31
0.0
  0
LINE
  5
290
  8
TOOL_4
 10
210.2545734963817097
 20
10.5463773326762702
 30
0.0
 11
208.663727451706194
 21
2.4961305980468329
 31
0.0
  0
LINE
  5
291
  8
TOOL_2
 10
182.7568493403846901
 20
3.833440545386122
 30
0.0
 11
196.2790393672096059
 21
2.3426540699599401
 31
0.0
  0
LINE
  5
292
  8
TOOL_5
 10
154.1345608424902025
 20
3.075556003312832
 30
0.0
 11
143.1974953000338076
 21
5.9577431115794788
 31
0.0
  0
ENDSEC
  0
EOF
