M48
;Layer_Color=9474304
;FILE_FORMAT=4:4
METRIC
;TYPE=PLATED
T1F00S00C0.8000
T2F00S00C0.9000
T3F00S00C1.0000
T4F00S00C1.1000
T5F00S00C2.2000
%
G90
T01
X00239459Y00241319
X00214059
X00188659
X00163259
X00137859
X00162929Y00142029
X00188329
X00213729
X00239129
X00108319Y00102659
X00054979
Y00202659
X00108319
X00493459Y00241319
X00468059
X00442659
X00417259
X00391859
X00366459
X00341059
X00315659
X00290259
X00264859
X00264529Y00142029
X00289929
X00315329
X00340729
X00366129
X00620459Y00241319
X00595059
X00569659
X00544259
X00518859
X00544129Y00349039
X00569129
X00569659Y00393319
X00544259
X00518859
X00531899Y00433189
X00570599
X00595059Y00393319
X00620459
X00612509Y00486199
X00637909
X00264859Y00393319
X00290259
X00315659
X00341059
X00366459
X00391859
X00417259
X00442659
X00468059
X00493459
Y00433189
X00442659Y00451909
Y00502709
X00366459Y00450639
X00341059
X00315659
X00290259
X00264859
X00391859
X00391729Y00349039
X00416729
X00137859Y00393319
X00163259
X00188659
X00214059
X00239459
Y00450639
X00214059
X00188659
X00136259Y00468619
Y00493619
X00493459Y00533189
X00409219Y00554990
Y00579989
X00371119Y00580189
Y00555189
X00570599Y00533189
X00531899
T02
X00239129Y00045909
Y00070909
X00213729Y00072909
Y00045909
X00188329
Y00070909
X00108319Y00058209
X00082919
Y00228389
Y00253789
X00366129Y00070909
Y00045909
X00340729
Y00070909
X00315329
Y00045909
X00289929
Y00070909
X00264529
Y00045909
X00634099Y00125519
Y00150919
X00082919Y00279189
Y00304589
Y00329989
Y00444289
Y00470089
Y00495089
X00112039Y00554990
Y00579989
X00137439
Y00554990
X00162839
Y00579989
X00188239
Y00554990
X00213639
Y00579989
X00239039
Y00554990
X00264439Y00552989
Y00579989
X00289839
Y00554990
T03
X00162929Y00208069
X00512419Y00166370
Y00128969
Y00103969
X00401689Y00142029
Y00208069
X00366129
X00542419Y00103969
Y00128969
X00519799Y00192829
X00582029
X00595999Y00166159
X00082919Y00363009
Y00412539
T04
X00715289Y00090170
Y00140970
Y00191770
Y00242570
Y00293370
Y00445770
Y00394970
Y00344170
X00468909Y00590550
X00519709
X00570509
X00634009Y00591820
X00684809
T05
X00467419Y00076469
X00587419
M30
