  0
SECTION
  2
HEADER
  9
$ACADVER
  1
AC1009
  9
$DWGCODEPAGE
  3
ansi_1252
  9
$INSBASE
 10
0.0
 20
0.0
 30
0.0
  9
$EXTMIN
 10
0.0
 20
-63.0856350318
 30
0.0
  9
$EXTMAX
 10
424.6850802543
 20
0.0050438502
 30
0.0
  9
$LIMMIN
 10
0.0
 20
0.0
  9
$LIMMAX
 10
420.0
 20
297.0
  9
$ORTHOMODE
 70
     0
  9
$REGENMODE
 70
     1
  9
$FILLMODE
 70
     1
  9
$QTEXTMODE
 70
     0
  9
$MIRRTEXT
 70
     1
  9
$DRAGMODE
 70
     2
  9
$LTSCALE
 40
1.0
  9
$OSMODE
 70
    37
  9
$ATTMODE
 70
     1
  9
$TEXTSIZE
 40
3.5
  9
$TRACEWID
 40
1.0
  9
$TEXTSTYLE
  7
STANDARD
  9
$CLAYER
  8
0
  9
$CELTYPE
  6
BYLAYER
  9
$CECOLOR
 62
   256
  9
$DIMSCALE
 40
1.0
  9
$DIMASZ
 40
3.302
  9
$DIMEXO
 40
1.0
  9
$DIMDLI
 40
3.75
  9
$DIMRND
 40
0.0
  9
$DIMDLE
 40
0.0
  9
$DIMEXE
 40
1.0
  9
$DIMTP
 40
0.0
  9
$DIMTM
 40
0.0
  9
$DIMTXT
 40
3.5
  9
$DIMCEN
 40
2.5
  9
$DIMTSZ
 40
0.0
  9
$DIMTOL
 70
     0
  9
$DIMLIM
 70
     0
  9
$DIMTIH
 70
     1
  9
$DIMTOH
 70
     1
  9
$DIMSE1
 70
     0
  9
$DIMSE2
 70
     0
  9
$DIMTAD
 70
     1
  9
$DIMZIN
 70
     0
  9
$DIMBLK
  1

  9
$DIMASO
 70
     1
  9
$DIMSHO
 70
     1
  9
$DIMPOST
  1

  9
$DIMAPOST
  1

  9
$DIMALT
 70
     0
  9
$DIMALTD
 70
     3
  9
$DIMALTF
 40
0.0393700787
  9
$DIMLFAC
 40
1.0
  9
$DIMTOFL
 70
     1
  9
$DIMTVP
 40
0.0
  9
$DIMTIX
 70
     0
  9
$DIMSOXD
 70
     0
  9
$DIMSAH
 70
     0
  9
$DIMBLK1
  1

  9
$DIMBLK2
  1

  9
$DIMSTYLE
  2
ISO-25
  9
$DIMCLRD
 70
     0
  9
$DIMCLRE
 70
     0
  9
$DIMCLRT
 70
     0
  9
$DIMTFAC
 40
1.0
  9
$DIMGAP
 40
1.524
  9
$LUNITS
 70
     2
  9
$LUPREC
 70
     2
  9
$SKETCHINC
 40
1.0
  9
$FILLETRAD
 40
10.0
  9
$AUNITS
 70
     0
  9
$AUPREC
 70
     2
  9
$MENU
  1
.
  9
$ELEVATION
 40
0.0
  9
$PELEVATION
 40
0.0
  9
$THICKNESS
 40
0.0
  9
$LIMCHECK
 70
     0
  9
$CHAMFERA
 40
0.0
  9
$CHAMFERB
 40
0.0
  9
$SKPOLY
 70
     0
  9
$TDCREATE
 40
2458402.467773067
  9
$TDUPDATE
 40
2458402.467881597
  9
$TDINDWG
 40
0.0000000116
  9
$TDUSRTIMER
 40
0.0000000116
  9
$USRTIMER
 70
     1
  9
$ANGBASE
 50
0.0
  9
$ANGDIR
 70
     0
  9
$PDMODE
 70
     0
  9
$PDSIZE
 40
-1.0
  9
$PLINEWID
 40
0.0
  9
$COORDS
 70
     1
  9
$SPLFRAME
 70
     0
  9
$SPLINETYPE
 70
     6
  9
$SPLINESEGS
 70
     8
  9
$ATTDIA
 70
     0
  9
$ATTREQ
 70
     1
  9
$HANDLING
 70
     1
  9
$HANDSEED
  5
23E
  9
$SURFTAB1
 70
     6
  9
$SURFTAB2
 70
     6
  9
$SURFTYPE
 70
     6
  9
$SURFU
 70
     6
  9
$SURFV
 70
     6
  9
$UCSNAME
  2

  9
$UCSORG
 10
0.0
 20
0.0
 30
0.0
  9
$UCSXDIR
 10
1.0
 20
0.0
 30
0.0
  9
$UCSYDIR
 10
0.0
 20
1.0
 30
0.0
  9
$PUCSNAME
  2

  9
$PUCSORG
 10
0.0
 20
0.0
 30
0.0
  9
$PUCSXDIR
 10
1.0
 20
0.0
 30
0.0
  9
$PUCSYDIR
 10
0.0
 20
1.0
 30
0.0
  9
$USERI1
 70
     0
  9
$USERI2
 70
     0
  9
$USERI3
 70
     0
  9
$USERI4
 70
     0
  9
$USERI5
 70
     0
  9
$USERR1
 40
0.0
  9
$USERR2
 40
0.0
  9
$USERR3
 40
0.0
  9
$USERR4
 40
0.0
  9
$USERR5
 40
0.0
  9
$WORLDVIEW
 70
     1
  9
$SHADEDGE
 70
     3
  9
$SHADEDIF
 70
    70
  9
$TILEMODE
 70
     1
  9
$MAXACTVP
 70
    64
  9
$PLIMCHECK
 70
     0
  9
$PEXTMIN
 10
1.0000000000E+20
 20
1.0000000000E+20
 30
1.0000000000E+20
  9
$PEXTMAX
 10
-1.0000000000E+20
 20
-1.0000000000E+20
 30
-1.0000000000E+20
  9
$PLIMMIN
 10
0.0
 20
0.0
  9
$PLIMMAX
 10
420.0
 20
297.0
  9
$UNITMODE
 70
     0
  9
$VISRETAIN
 70
     1
  9
$PLINEGEN
 70
     0
  9
$PSLTSCALE
 70
     1
  0
ENDSEC
  0
SECTION
  2
TABLES
  0
TABLE
  2
VPORT
 70
     1
  0
VPORT
  2
*ACTIVE
 70
     0
 10
0.0
 20
0.0
 11
1.0
 21
1.0
 12
212.3425401272
 22
-31.5402955908
 13
0.0
 23
0.0
 14
10.0
 24
10.0
 15
10.0
 25
10.0
 16
0.0
 26
0.0
 36
1.0
 17
0.0
 27
0.0
 37
0.0
 40
64.3524924596
 41
6.7313442775
 42
50.0
 43
0.0
 44
0.0
 50
0.0
 51
0.0
 71
     0
 72
   100
 73
     1
 74
     3
 75
     0
 76
     0
 77
     0
 78
     0
  0
ENDTAB
  0
TABLE
  2
LTYPE
 70
     6
  0
LTYPE
  2
CONTINUOUS
 70
     0
  3
Solid line
 72
    65
 73
     0
 40
0.0
  0
LTYPE
  2
HIDDEN
 70
     0
  3
Hidden __ __ __ __ __ __ __ __ __ __ __ __ __ __
 72
    65
 73
     2
 40
1.905
 49
1.27
 49
-0.635
  0
LTYPE
  2
PHANTOM
 70
     0
  3
Phantom ______  __  __  ______  __  __  ______
 72
    65
 73
     6
 40
12.7
 49
6.35
 49
-1.27
 49
1.27
 49
-1.27
 49
1.27
 49
-1.27
  0
LTYPE
  2
CENTER
 70
     0
  3
Center ____ _ ____ _ ____ _ ____ _ ____ _ ____
 72
    65
 73
     4
 40
10.16
 49
6.35
 49
-1.27
 49
1.27
 49
-1.27
  0
LTYPE
  2
CENTERX2
 70
     0
  3
Center (2x) ________  __  ________  __  _____
 72
    65
 73
     4
 40
20.32
 49
12.7
 49
-2.54
 49
2.54
 49
-2.54
  0
LTYPE
  2
DOT2
 70
     0
  3
Dot (.5x) ........................................
 72
    65
 73
     2
 40
0.635
 49
0.0
 49
-0.635
  0
ENDTAB
  0
TABLE
  2
LAYER
 70
     1
  0
LAYER
  2
0
 70
     0
 62
     7
  6
CONTINUOUS
  0
ENDTAB
  0
TABLE
  2
STYLE
 70
     1
  0
STYLE
  2
STANDARD
 70
     0
 40
0.0
 41
1.0
 50
0.0
 71
     0
 42
3.5
  3
txt
  4

  0
ENDTAB
  0
TABLE
  2
VIEW
 70
     0
  0
ENDTAB
  0
TABLE
  2
UCS
 70
     0
  0
ENDTAB
  0
TABLE
  2
APPID
 70
     1
  0
APPID
  2
ACAD
 70
     0
  0
ENDTAB
  0
TABLE
  2
DIMSTYLE
 70
     1
  0
DIMSTYLE
  2
ISO-25
 70
     0
  3

  4

  5

  6

  7

 40
1.0
 41
2.5
 42
0.625
 43
3.75
 44
1.25
 45
0.0
 46
0.0
 47
0.0
 48
0.0
140
2.5
141
2.5
142
0.0
143
0.0393700787
144
1.0
145
0.0
146
1.0
147
0.625
 71
     0
 72
     0
 73
     0
 74
     0
 75
     0
 76
     0
 77
     1
 78
     8
170
     0
171
     3
172
     1
173
     0
174
     0
175
     0
176
     0
177
     0
178
     0
  0
ENDTAB
  0
ENDSEC
  0
SECTION
  2
BLOCKS
  0
BLOCK
  8
0
  2
$MODEL_SPACE
 70
     0
 10
0.0
 20
0.0
 30
0.0
  3
$MODEL_SPACE
  1

  0
ENDBLK
  5
21
  8
0
  0
BLOCK
 67
     1
  8
0
  2
$PAPER_SPACE
 70
     0
 10
0.0
 20
0.0
 30
0.0
  3
$PAPER_SPACE
  1

  0
ENDBLK
  5
1D
 67
     1
  8
0
  0
ENDSEC
  0
SECTION
  2
ENTITIES
  0
LINE
  5
73
  8
0
  6
CONTINUOUS
 62
     7
 10
0.5
 20
-10.0
 30
0.0
 11
26.7767686318
 21
-10.0
 31
0.0
  0
LINE
  5
74
  8
0
  6
CONTINUOUS
 62
     7
 10
25.1072083954
 20
-43.348668161
 30
0.0
 11
17.3340415482
 21
-43.348668161
 31
0.0
  0
LINE
  5
75
  8
0
  6
CONTINUOUS
 62
     7
 10
16.3340415482
 20
-43.348668161
 30
0.0
 11
16.3340415482
 21
-62.4050499673
 31
0.0
  0
LINE
  5
76
  8
0
  6
CONTINUOUS
 62
     7
 10
16.3340415482
 20
-62.4050499673
 30
0.0
 11
0.0
 21
-62.4050499673
 31
0.0
  0
LINE
  5
77
  8
0
  6
CONTINUOUS
 62
     7
 10
0.0
 20
-62.4050499673
 30
0.0
 11
0.0
 21
-10.0
 31
0.0
  0
LINE
  5
78
  8
0
  6
CONTINUOUS
 62
     7
 10
17.3340415482
 20
-32.4593071288
 30
0.0
 11
20.0240886949
 21
-32.4593071288
 31
0.0
  0
LINE
  5
79
  8
0
  6
CONTINUOUS
 62
     7
 10
20.6196006263
 20
-20.8893610322
 30
0.0
 11
16.3340415482
 21
-20.8893610322
 31
0.0
  0
LINE
  5
7A
  8
0
  6
CONTINUOUS
 62
     7
 10
16.3340415482
 20
-20.8893610322
 30
0.0
 11
16.3340415482
 21
-32.4593071288
 31
0.0
  0
LINE
  5
7B
  8
0
  6
CONTINUOUS
 62
     7
 10
52.9050499673
 20
-10.0
 30
0.0
 11
66.697336322
 21
-10.0
 31
0.0
  0
LINE
  5
7C
  8
0
  6
CONTINUOUS
 62
     7
 10
66.697336322
 20
-10.0
 30
0.0
 11
66.697336322
 21
-62.4050499673
 31
0.0
  0
LINE
  5
7D
  8
0
  6
CONTINUOUS
 62
     7
 10
66.697336322
 20
-62.4050499673
 30
0.0
 11
52.4050499673
 21
-62.4050499673
 31
0.0
  0
LINE
  5
7E
  8
0
  6
CONTINUOUS
 62
     7
 10
52.4050499673
 20
-62.4050499673
 30
0.0
 11
52.4050499673
 21
-10.0
 31
0.0
  0
LINE
  5
7F
  8
0
  6
CONTINUOUS
 62
     7
 10
91.1983986444
 20
-38.5845727094
 30
0.0
 11
76.2255272251
 21
-37.2234025804
 31
0.0
  0
LINE
  5
80
  8
0
  6
CONTINUOUS
 62
     7
 10
117.0606310957
 20
-37.5743292543
 30
0.0
 11
117.0606310957
 21
-54.3337364679
 31
0.0
  0
LINE
  5
81
  8
0
  6
CONTINUOUS
 62
     7
 10
118.8897034566
 20
-62.4050499673
 30
0.0
 11
105.1716607501
 21
-62.4050499673
 31
0.0
  0
LINE
  5
82
  8
0
  6
CONTINUOUS
 62
     7
 10
102.768344741
 20
-47.9745197713
 30
0.0
 11
102.768344741
 21
-46.071008419
 31
0.0
  0
LINE
  5
83
  8
0
  6
CONTINUOUS
 62
     7
 10
123.3540119048
 20
-24.2872425045
 30
0.0
 11
138.5415971943
 21
-24.2872425045
 31
0.0
  0
LINE
  5
84
  8
0
  6
CONTINUOUS
 62
     7
 10
138.5415971943
 20
-24.2872425045
 30
0.0
 11
138.5415971943
 21
-30.6834054761
 31
0.0
  0
LINE
  5
85
  8
0
  6
CONTINUOUS
 62
     7
 10
166.0627557405
 20
-38.2974508853
 30
0.0
 11
166.0627557405
 21
-62.4050499673
 31
0.0
  0
LINE
  5
86
  8
0
  6
CONTINUOUS
 62
     7
 10
166.0627557405
 20
-62.4050499673
 30
0.0
 11
151.7704693858
 21
-62.4050499673
 31
0.0
  0
LINE
  5
87
  8
0
  6
CONTINUOUS
 62
     7
 10
151.7704693858
 20
-62.4050499673
 30
0.0
 11
151.7704693858
 21
-41.6791079246
 31
0.0
  0
LINE
  5
88
  8
0
  6
CONTINUOUS
 62
     7
 10
139.5199382246
 20
-44.305740908
 30
0.0
 11
139.5199382246
 21
-62.4000061171
 31
0.0
  0
LINE
  5
89
  8
0
  6
CONTINUOUS
 62
     7
 10
139.5199382246
 20
-62.4000061171
 30
0.0
 11
122.8540119048
 21
-62.4000061171
 31
0.0
  0
LINE
  5
8A
  8
0
  6
CONTINUOUS
 62
     7
 10
122.8540119048
 20
-62.4000061171
 30
0.0
 11
122.8540119048
 21
-24.2872425045
 31
0.0
  0
LINE
  5
8B
  8
0
  6
CONTINUOUS
 62
     7
 10
217.1066355787
 20
-46.7515934835
 30
0.0
 11
188.8414868844
 21
-46.7515934835
 31
0.0
  0
LINE
  5
8C
  8
0
  6
CONTINUOUS
 62
     7
 10
201.453179095
 20
-50.8351038706
 30
0.0
 11
216.4260505142
 21
-52.1962739996
 31
0.0
  0
LINE
  5
8D
  8
0
  6
CONTINUOUS
 62
     7
 10
217.1066355787
 20
-45.1245698137
 30
0.0
 11
217.1066355787
 21
-46.7515934835
 31
0.0
  0
LINE
  5
8E
  8
0
  6
CONTINUOUS
 62
     7
 10
188.8733893093
 20
-39.2651577739
 30
0.0
 11
202.1337641595
 21
-39.2651577739
 31
0.0
  0
LINE
  5
8F
  8
0
  6
CONTINUOUS
 62
     7
 10
240.9271128366
 20
-10.0
 30
0.0
 11
240.9271128366
 21
-24.2922863547
 31
0.0
  0
LINE
  5
90
  8
0
  6
CONTINUOUS
 62
     7
 10
240.9271128366
 20
-24.2922863547
 30
0.0
 11
249.0941336107
 21
-24.2922863547
 31
0.0
  0
LINE
  5
91
  8
0
  6
CONTINUOUS
 62
     7
 10
249.0941336107
 20
-24.2922863547
 30
0.0
 11
249.0941336107
 21
-35.1816473869
 31
0.0
  0
LINE
  5
92
  8
0
  6
CONTINUOUS
 62
     7
 10
249.0941336107
 20
-35.1816473869
 30
0.0
 11
240.9271128366
 21
-35.1816473869
 31
0.0
  0
LINE
  5
93
  8
0
  6
CONTINUOUS
 62
     7
 10
240.9271128366
 20
-35.1816473869
 30
0.0
 11
240.9271128366
 21
-48.4955927114
 31
0.0
  0
LINE
  5
94
  8
0
  6
CONTINUOUS
 62
     7
 10
248.6687679454
 20
-51.9623228837
 30
0.0
 11
249.7747186752
 21
-61.9158794522
 31
0.0
  0
LINE
  5
95
  8
0
  6
CONTINUOUS
 62
     7
 10
226.6348264819
 20
-48.4105195783
 30
0.0
 11
226.6348264819
 21
-35.1816473869
 31
0.0
  0
LINE
  5
96
  8
0
  6
CONTINUOUS
 62
     7
 10
226.6348264819
 20
-35.1816473869
 30
0.0
 11
221.1901459658
 21
-35.1816473869
 31
0.0
  0
LINE
  5
97
  8
0
  6
CONTINUOUS
 62
     7
 10
221.1901459658
 20
-35.1816473869
 30
0.0
 11
221.1901459658
 21
-24.2922863547
 31
0.0
  0
LINE
  5
98
  8
0
  6
CONTINUOUS
 62
     7
 10
221.1901459658
 20
-24.2922863547
 30
0.0
 11
226.6348264819
 21
-24.2922863547
 31
0.0
  0
LINE
  5
99
  8
0
  6
CONTINUOUS
 62
     7
 10
226.6348264819
 20
-24.2922863547
 30
0.0
 11
226.6348264819
 21
-17.3907284349
 31
0.0
  0
LINE
  5
9A
  8
0
  6
CONTINUOUS
 62
     7
 10
226.6348264819
 20
-17.3907284349
 30
0.0
 11
240.4271128366
 21
-10.2585565476
 31
0.0
  0
LINE
  5
9B
  8
0
  6
CONTINUOUS
 62
     7
 10
291.9709926748
 20
-40.626327903
 30
0.0
 11
306.2632790296
 21
-44.9225211227
 31
0.0
  0
LINE
  5
9C
  8
0
  6
CONTINUOUS
 62
     7
 10
305.5826939651
 20
-25.8236027499
 30
0.0
 11
291.2904076103
 21
-29.0563818063
 31
0.0
  0
LINE
  5
9D
  8
0
  6
CONTINUOUS
 62
     7
 10
313.8139102755
 20
-10.0
 30
0.0
 11
328.1804402784
 21
-10.0
 31
0.0
  0
LINE
  5
9E
  8
0
  6
CONTINUOUS
 62
     7
 10
328.1804402784
 20
-10.0
 30
0.0
 11
348.0237485655
 21
-38.9886700915
 31
0.0
  0
LINE
  5
9F
  8
0
  6
CONTINUOUS
 62
     7
 10
348.0237485655
 20
-38.9886700915
 30
0.0
 11
348.0237485655
 21
-10.0
 31
0.0
  0
LINE
  5
A0
  8
0
  6
CONTINUOUS
 62
     7
 10
348.0237485655
 20
-10.0
 30
0.0
 11
363.6772050492
 21
-10.0
 31
0.0
  0
LINE
  5
A1
  8
0
  6
CONTINUOUS
 62
     7
 10
363.6772050492
 20
-10.0
 30
0.0
 11
363.6772050492
 21
-62.4050499673
 31
0.0
  0
LINE
  5
A2
  8
0
  6
CONTINUOUS
 62
     7
 10
363.6772050492
 20
-62.4050499673
 30
0.0
 11
348.0237485655
 21
-62.4050499673
 31
0.0
  0
LINE
  5
A3
  8
0
  6
CONTINUOUS
 62
     7
 10
348.0237485655
 20
-62.4050499673
 30
0.0
 11
328.2867816947
 21
-33.5758920003
 31
0.0
  0
LINE
  5
A4
  8
0
  6
CONTINUOUS
 62
     7
 10
328.2867816947
 20
-33.5758920003
 30
0.0
 11
328.2867816947
 21
-62.4050499673
 31
0.0
  0
LINE
  5
A5
  8
0
  6
CONTINUOUS
 62
     7
 10
328.2867816947
 20
-62.4050499673
 30
0.0
 11
313.3139102755
 21
-62.4050499673
 31
0.0
  0
LINE
  5
A6
  8
0
  6
CONTINUOUS
 62
     7
 10
313.3139102755
 20
-62.4050499673
 30
0.0
 11
313.3139102755
 21
-10.0
 31
0.0
  0
LINE
  5
A7
  8
0
  6
CONTINUOUS
 62
     7
 10
410.3927938996
 20
-40.626327903
 30
0.0
 11
424.6850802543
 21
-44.9225211227
 31
0.0
  0
LINE
  5
A8
  8
0
  6
CONTINUOUS
 62
     7
 10
424.0044951898
 20
-25.8236027499
 30
0.0
 11
409.7122088351
 21
-29.0563818063
 31
0.0
  0
LINE
  5
A9
  8
0
  6
CONTINUOUS
 62
     7
 10
16.3340415482
 20
-43.348668161
 30
0.0
 11
16.3340415482
 21
-32.4593071288
 31
0.0
  0
LINE
  5
AA
  8
0
  6
CONTINUOUS
 62
     7
 10
17.3340415482
 20
-32.4593071288
 30
0.0
 11
17.3340415482
 21
-43.348668161
 31
0.0
  0
LINE
  5
AB
  8
0
  6
CONTINUOUS
 62
     7
 10
102.768344741
 20
-38.5845727094
 30
0.0
 11
102.768344741
 21
-46.071008419
 31
0.0
  0
LINE
  5
AC
  8
0
  6
CONTINUOUS
 62
     7
 10
101.768344741
 20
-46.3593936798
 30
0.0
 11
101.768344741
 21
-38.9371870686
 31
0.0
  0
LINE
  5
AD
  8
0
  6
CONTINUOUS
 62
     7
 10
187.8414778048
 20
-46.7515934835
 30
0.0
 11
187.8733802297
 21
-39.2651577739
 31
0.0
  0
LINE
  5
AE
  8
0
  6
CONTINUOUS
 62
     7
 10
188.8733893093
 20
-39.2651577739
 30
0.0
 11
188.8414868844
 21
-46.7515934835
 31
0.0
  0
LINE
  5
AF
  8
0
  6
CONTINUOUS
 62
     7
 10
0.5
 20
-10.0
 30
0.0
 11
0.5
 21
0.0
 31
0.0
  0
LINE
  5
B0
  8
0
  6
CONTINUOUS
 62
     7
 10
0.5
 20
0.0
 30
0.0
 11
52.4050499673
 21
0.0
 31
0.0
  0
LINE
  5
B1
  8
0
  6
CONTINUOUS
 62
     7
 10
52.4050499673
 20
0.0
 30
0.0
 11
52.4050499673
 21
-10.0
 31
0.0
  0
LINE
  5
B2
  8
0
  6
CONTINUOUS
 62
     7
 10
52.9050499673
 20
-10.0
 30
0.0
 11
52.9050499673
 21
0.0
 31
0.0
  0
LINE
  5
B3
  8
0
  6
CONTINUOUS
 62
     7
 10
52.9050499673
 20
0.0
 30
0.0
 11
95.8880551045
 21
0.0
 31
0.0
  0
LINE
  5
B4
  8
0
  6
CONTINUOUS
 62
     7
 10
95.8880551045
 20
0.0
 30
0.0
 11
95.8880551045
 21
-23.6117012902
 31
0.0
  0
LINE
  5
B5
  8
0
  6
CONTINUOUS
 62
     7
 10
96.3880551045
 20
-23.6144637554
 30
0.0
 11
96.3880551045
 21
0.0050438502
 31
0.0
  0
LINE
  5
B6
  8
0
  6
CONTINUOUS
 62
     7
 10
96.3880551045
 20
0.0050438502
 30
0.0
 11
122.8540119048
 21
0.0050438502
 31
0.0
  0
LINE
  5
B7
  8
0
  6
CONTINUOUS
 62
     7
 10
122.8540119048
 20
0.0050438502
 30
0.0
 11
122.8540119048
 21
-24.2872425045
 31
0.0
  0
LINE
  5
B8
  8
0
  6
CONTINUOUS
 62
     7
 10
123.3540119048
 20
-24.2872425045
 30
0.0
 11
123.3540119048
 21
0.0050438502
 31
0.0
  0
LINE
  5
B9
  8
0
  6
CONTINUOUS
 62
     7
 10
123.3540119048
 20
0.0050438502
 30
0.0
 11
194.4452797589
 21
0.0050438502
 31
0.0
  0
LINE
  5
BA
  8
0
  6
CONTINUOUS
 62
     7
 10
194.4452797589
 20
0.0050438502
 30
0.0
 11
194.4452797589
 21
-23.6117012902
 31
0.0
  0
LINE
  5
BB
  8
0
  6
CONTINUOUS
 62
     7
 10
194.9452797589
 20
-23.6180049003
 30
0.0
 11
194.9452797589
 21
0.0050438502
 31
0.0
  0
LINE
  5
BC
  8
0
  6
CONTINUOUS
 62
     7
 10
194.9452797589
 20
0.0050438502
 30
0.0
 11
240.4271128366
 21
0.0050438502
 31
0.0
  0
LINE
  5
BD
  8
0
  6
CONTINUOUS
 62
     7
 10
240.4271128366
 20
0.0050438502
 30
0.0
 11
240.4271128366
 21
-10.2585565476
 31
0.0
  0
LINE
  5
BE
  8
0
  6
CONTINUOUS
 62
     7
 10
240.9271128366
 20
-10.0
 30
0.0
 11
240.9271128366
 21
0.0050438502
 31
0.0
  0
LINE
  5
BF
  8
0
  6
CONTINUOUS
 62
     7
 10
240.9271128366
 20
0.0050438502
 30
0.0
 11
281.6452411492
 21
0.0050438502
 31
0.0
  0
LINE
  5
C0
  8
0
  6
CONTINUOUS
 62
     7
 10
281.6452411492
 20
0.0050438502
 30
0.0
 11
281.6452411492
 21
-9.3194149355
 31
0.0
  0
LINE
  5
C1
  8
0
  6
CONTINUOUS
 62
     7
 10
282.1452411492
 20
-9.3227027402
 30
0.0
 11
282.1452411492
 21
0.0050438502
 31
0.0
  0
LINE
  5
C2
  8
0
  6
CONTINUOUS
 62
     7
 10
282.1452411492
 20
0.0050438502
 30
0.0
 11
313.3139102755
 21
0.0050438502
 31
0.0
  0
LINE
  5
C3
  8
0
  6
CONTINUOUS
 62
     7
 10
313.3139102755
 20
0.0050438502
 30
0.0
 11
313.3139102755
 21
-10.0
 31
0.0
  0
LINE
  5
C4
  8
0
  6
CONTINUOUS
 62
     7
 10
313.8139102755
 20
-10.0
 30
0.0
 11
313.8139102755
 21
0.0050438502
 31
0.0
  0
LINE
  5
C5
  8
0
  6
CONTINUOUS
 62
     7
 10
313.8139102755
 20
0.0050438502
 30
0.0
 11
400.067042374
 21
0.0050438502
 31
0.0
  0
LINE
  5
C6
  8
0
  6
CONTINUOUS
 62
     7
 10
400.067042374
 20
0.0050438502
 30
0.0
 11
400.067042374
 21
-9.3194149355
 31
0.0
  0
LINE
  5
C7
  8
0
  6
CONTINUOUS
 62
     7
 10
400.567042374
 20
-9.3227027402
 30
0.0
 11
400.567042374
 21
0.0050438502
 31
0.0
  0
LINE
  5
C8
  8
0
  6
CONTINUOUS
 62
     7
 10
0.0
 20
-10.0
 30
0.0
 11
0.0
 21
0.0
 31
0.0
  0
POLYLINE
  5
CA
  8
0
  6
CONTINUOUS
 62
     7
 66
     1
 10
0.0
 20
0.0
 30
0.0
 70
   128
  0
VERTEX
  5
10A
  8
0
  6
CONTINUOUS
 62
     7
 10
26.7767608166
 20
-10.0
 30
0.0
  0
VERTEX
  5
10B
  8
0
  6
CONTINUOUS
 62
     7
 10
31.8465572659
 20
-10.4203806669
 30
0.0
  0
VERTEX
  5
10C
  8
0
  6
CONTINUOUS
 62
     7
 10
36.6805638147
 20
-11.972254909
 30
0.0
  0
VERTEX
  5
10D
  8
0
  6
CONTINUOUS
 62
     7
 10
40.6761795861
 20
-15.0816258237
 30
0.0
  0
VERTEX
  5
10E
  8
0
  6
CONTINUOUS
 62
     7
 10
42.794353113
 20
-18.4627175101
 30
0.0
  0
VERTEX
  5
10F
  8
0
  6
CONTINUOUS
 62
     7
 10
43.910436061
 20
-22.2969761775
 30
0.0
  0
VERTEX
  5
110
  8
0
  6
CONTINUOUS
 62
     7
 10
44.2380291932
 20
-26.2808708401
 30
0.0
  0
SEQEND
  5
20A
  8
0
  6
CONTINUOUS
 62
     7
  0
POLYLINE
  5
CB
  8
0
  6
CONTINUOUS
 62
     7
 66
     1
 10
0.0
 20
0.0
 30
0.0
 70
   128
  0
VERTEX
  5
111
  8
0
  6
CONTINUOUS
 62
     7
 10
44.2380011082
 20
-26.2808708401
 30
0.0
  0
VERTEX
  5
112
  8
0
  6
CONTINUOUS
 62
     7
 10
43.6089097274
 20
-31.6946468304
 30
0.0
  0
VERTEX
  5
113
  8
0
  6
CONTINUOUS
 62
     7
 10
41.3771335643
 20
-36.6512765668
 30
0.0
  0
VERTEX
  5
114
  8
0
  6
CONTINUOUS
 62
     7
 10
37.4788570585
 20
-40.4296279654
 30
0.0
  0
VERTEX
  5
115
  8
0
  6
CONTINUOUS
 62
     7
 10
33.5846344569
 20
-42.2107644568
 30
0.0
  0
VERTEX
  5
116
  8
0
  6
CONTINUOUS
 62
     7
 10
29.3894001146
 20
-43.0934607971
 30
0.0
  0
VERTEX
  5
117
  8
0
  6
CONTINUOUS
 62
     7
 10
25.1072083954
 20
-43.348668161
 30
0.0
  0
SEQEND
  5
20B
  8
0
  6
CONTINUOUS
 62
     7
  0
POLYLINE
  5
CC
  8
0
  6
CONTINUOUS
 62
     7
 66
     1
 10
0.0
 20
0.0
 30
0.0
 70
   128
  0
VERTEX
  5
118
  8
0
  6
CONTINUOUS
 62
     7
 10
20.0240761042
 20
-32.4593071288
 30
0.0
  0
VERTEX
  5
119
  8
0
  6
CONTINUOUS
 62
     7
 10
22.7836345377
 20
-32.2614137042
 30
0.0
  0
VERTEX
  5
11A
  8
0
  6
CONTINUOUS
 62
     7
 10
25.3983726792
 20
-31.3910195507
 30
0.0
  0
VERTEX
  5
11B
  8
0
  6
CONTINUOUS
 62
     7
 10
27.2821248844
 20
-29.4016696209
 30
0.0
  0
VERTEX
  5
11C
  8
0
  6
CONTINUOUS
 62
     7
 10
27.9039876449
 20
-26.7275047887
 30
0.0
  0
SEQEND
  5
20C
  8
0
  6
CONTINUOUS
 62
     7
  0
POLYLINE
  5
CD
  8
0
  6
CONTINUOUS
 62
     7
 66
     1
 10
0.0
 20
0.0
 30
0.0
 70
   128
  0
VERTEX
  5
11D
  8
0
  6
CONTINUOUS
 62
     7
 10
27.9039740562
 20
-26.7275047887
 30
0.0
  0
VERTEX
  5
11E
  8
0
  6
CONTINUOUS
 62
     7
 10
27.2410855559
 20
-23.8382598101
 30
0.0
  0
VERTEX
  5
11F
  8
0
  6
CONTINUOUS
 62
     7
 10
25.2021323108
 20
-21.7181862976
 30
0.0
  0
VERTEX
  5
120
  8
0
  6
CONTINUOUS
 62
     7
 10
22.9611016866
 20
-21.0473809602
 30
0.0
  0
VERTEX
  5
121
  8
0
  6
CONTINUOUS
 62
     7
 10
20.6196006263
 20
-20.8893610322
 30
0.0
  0
SEQEND
  5
20D
  8
0
  6
CONTINUOUS
 62
     7
  0
ARC
  5
CE
  8
0
  6
CONTINUOUS
 62
     7
 10
90.8854095707
 20
-38.6032771931
 30
0.0
 40
14.72468811908729
 50
123.4167523367
 51
174.6228288259
  0
ARC
  5
CF
  8
0
  6
CONTINUOUS
 62
     7
 10
94.4650382995
 20
-49.8793108131
 30
0.0
 40
26.30612641336066
 50
86.8990997743
 51
116.3812289121
  0
POLYLINE
  5
D0
  8
0
  6
CONTINUOUS
 62
     7
 66
     1
 10
0.0
 20
0.0
 30
0.0
 70
   128
  0
VERTEX
  5
122
  8
0
  6
CONTINUOUS
 62
     7
 10
96.3880419731
 20
-23.6144637554
 30
0.0
  0
VERTEX
  5
123
  8
0
  6
CONTINUOUS
 62
     7
 10
101.2726865431
 20
-23.7603327499
 30
0.0
  0
VERTEX
  5
124
  8
0
  6
CONTINUOUS
 62
     7
 10
106.1286307111
 20
-24.2935468513
 30
0.0
  0
VERTEX
  5
125
  8
0
  6
CONTINUOUS
 62
     7
 10
109.8106991217
 20
-25.3602062235
 30
0.0
  0
VERTEX
  5
126
  8
0
  6
CONTINUOUS
 62
     7
 10
113.0515597001
 20
-27.3974557115
 30
0.0
  0
SEQEND
  5
20E
  8
0
  6
CONTINUOUS
 62
     7
  0
ARC
  5
D1
  8
0
  6
CONTINUOUS
 62
     7
 10
102.9584054213
 20
-37.2516749275
 30
0.0
 40
14.10591630440584
 50
358.6893199132
 51
44.3138021756
  0
ARC
  5
D2
  8
0
  6
CONTINUOUS
 62
     7
 10
132.4284846473
 20
-55.0940137016
 30
0.0
 40
15.38667759482142
 50
177.167782229
 51
208.3693556719
  0
POLYLINE
  5
D3
  8
0
  6
CONTINUOUS
 62
     7
 66
     1
 10
0.0
 20
0.0
 30
0.0
 70
   128
  0
VERTEX
  5
127
  8
0
  6
CONTINUOUS
 62
     7
 10
105.1716208458
 20
-62.4050499673
 30
0.0
  0
VERTEX
  5
128
  8
0
  6
CONTINUOUS
 62
     7
 10
104.0123896322
 20
-59.7962657491
 30
0.0
  0
VERTEX
  5
129
  8
0
  6
CONTINUOUS
 62
     7
 10
103.5978077884
 20
-57.5877838075
 30
0.0
  0
SEQEND
  5
20F
  8
0
  6
CONTINUOUS
 62
     7
  0
POLYLINE
  5
D4
  8
0
  6
CONTINUOUS
 62
     7
 66
     1
 10
0.0
 20
0.0
 30
0.0
 70
   128
  0
VERTEX
  5
12A
  8
0
  6
CONTINUOUS
 62
     7
 10
103.5977602005
 20
-57.5877838075
 30
0.0
  0
VERTEX
  5
12B
  8
0
  6
CONTINUOUS
 62
     7
 10
100.5634132808
 20
-60.0477645136
 30
0.0
  0
VERTEX
  5
12C
  8
0
  6
CONTINUOUS
 62
     7
 10
97.8660054482
 20
-61.5117820701
 30
0.0
  0
SEQEND
  5
210
  8
0
  6
CONTINUOUS
 62
     7
  0
POLYLINE
  5
D5
  8
0
  6
CONTINUOUS
 62
     7
 66
     1
 10
0.0
 20
0.0
 30
0.0
 70
   128
  0
VERTEX
  5
12D
  8
0
  6
CONTINUOUS
 62
     7
 10
97.865998745
 20
-61.5117820701
 30
0.0
  0
VERTEX
  5
12E
  8
0
  6
CONTINUOUS
 62
     7
 10
92.8703033583
 20
-62.8157548515
 30
0.0
  0
VERTEX
  5
12F
  8
0
  6
CONTINUOUS
 62
     7
 10
88.8163509186
 20
-63.0856350318
 30
0.0
  0
SEQEND
  5
211
  8
0
  6
CONTINUOUS
 62
     7
  0
POLYLINE
  5
D6
  8
0
  6
CONTINUOUS
 62
     7
 66
     1
 10
0.0
 20
0.0
 30
0.0
 70
   128
  0
VERTEX
  5
130
  8
0
  6
CONTINUOUS
 62
     7
 10
88.816344738
 20
-63.0856350318
 30
0.0
  0
VERTEX
  5
131
  8
0
  6
CONTINUOUS
 62
     7
 10
83.9978779466
 20
-62.6407096099
 30
0.0
  0
VERTEX
  5
132
  8
0
  6
CONTINUOUS
 62
     7
 10
79.4885194547
 20
-60.9295062673
 30
0.0
  0
VERTEX
  5
133
  8
0
  6
CONTINUOUS
 62
     7
 10
77.603470898
 20
-59.4125170632
 30
0.0
  0
VERTEX
  5
134
  8
0
  6
CONTINUOUS
 62
     7
 10
76.1039137147
 20
-57.5147885808
 30
0.0
  0
VERTEX
  5
135
  8
0
  6
CONTINUOUS
 62
     7
 10
75.1669732629
 20
-55.2862248324
 30
0.0
  0
VERTEX
  5
136
  8
0
  6
CONTINUOUS
 62
     7
 10
74.8643570961
 20
-52.8874932058
 30
0.0
  0
SEQEND
  5
212
  8
0
  6
CONTINUOUS
 62
     7
  0
POLYLINE
  5
D7
  8
0
  6
CONTINUOUS
 62
     7
 66
     1
 10
0.0
 20
0.0
 30
0.0
 70
   128
  0
VERTEX
  5
137
  8
0
  6
CONTINUOUS
 62
     7
 10
74.8643279076
 20
-52.8874932058
 30
0.0
  0
VERTEX
  5
138
  8
0
  6
CONTINUOUS
 62
     7
 10
75.6312711639
 20
-48.8915986834
 30
0.0
  0
VERTEX
  5
139
  8
0
  6
CONTINUOUS
 62
     7
 10
77.4271852297
 20
-46.2411546852
 30
0.0
  0
SEQEND
  5
213
  8
0
  6
CONTINUOUS
 62
     7
  0
ARC
  5
D8
  8
0
  6
CONTINUOUS
 62
     7
 10
88.7206456471
 20
-60.2891559714
 30
0.0
 40
18.02468892233261
 50
95.8921359933
 51
128.796565967
  0
POLYLINE
  5
D9
  8
0
  6
CONTINUOUS
 62
     7
 66
     1
 10
0.0
 20
0.0
 30
0.0
 70
   128
  0
VERTEX
  5
13A
  8
0
  6
CONTINUOUS
 62
     7
 10
86.8702530861
 20
-42.3596929891
 30
0.0
  0
VERTEX
  5
13B
  8
0
  6
CONTINUOUS
 62
     7
 10
95.2828074953
 20
-40.7287226308
 30
0.0
  0
VERTEX
  5
13C
  8
0
  6
CONTINUOUS
 62
     7
 10
101.768344741
 20
-38.9371870686
 30
0.0
  0
SEQEND
  5
214
  8
0
  6
CONTINUOUS
 62
     7
  0
POLYLINE
  5
DA
  8
0
  6
CONTINUOUS
 62
     7
 66
     1
 10
0.0
 20
0.0
 30
0.0
 70
   128
  0
VERTEX
  5
13D
  8
0
  6
CONTINUOUS
 62
     7
 10
102.7683019638
 20
-38.5845727094
 30
0.0
  0
VERTEX
  5
13E
  8
0
  6
CONTINUOUS
 62
     7
 10
102.5404203401
 20
-36.4321795046
 30
0.0
  0
VERTEX
  5
13F
  8
0
  6
CONTINUOUS
 62
     7
 10
101.4366523271
 20
-34.6097418116
 30
0.0
  0
VERTEX
  5
140
  8
0
  6
CONTINUOUS
 62
     7
 10
99.8705021184
 20
-33.9659946311
 30
0.0
  0
VERTEX
  5
141
  8
0
  6
CONTINUOUS
 62
     7
 10
98.1743955556
 20
-33.8204772579
 30
0.0
  0
SEQEND
  5
215
  8
0
  6
CONTINUOUS
 62
     7
  0
POLYLINE
  5
DB
  8
0
  6
CONTINUOUS
 62
     7
 66
     1
 10
0.0
 20
0.0
 30
0.0
 70
   128
  0
VERTEX
  5
142
  8
0
  6
CONTINUOUS
 62
     7
 10
98.174393177
 20
-33.8204772579
 30
0.0
  0
VERTEX
  5
143
  8
0
  6
CONTINUOUS
 62
     7
 10
95.3171470654
 20
-34.1174081901
 30
0.0
  0
VERTEX
  5
144
  8
0
  6
CONTINUOUS
 62
     7
 10
93.2614221212
 20
-35.032769404
 30
0.0
  0
SEQEND
  5
216
  8
0
  6
CONTINUOUS
 62
     7
  0
POLYLINE
  5
DC
  8
0
  6
CONTINUOUS
 62
     7
 66
     1
 10
0.0
 20
0.0
 30
0.0
 70
   128
  0
VERTEX
  5
145
  8
0
  6
CONTINUOUS
 62
     7
 10
93.2614207268
 20
-35.032769404
 30
0.0
  0
VERTEX
  5
146
  8
0
  6
CONTINUOUS
 62
     7
 10
91.8560453534
 20
-36.8738143697
 30
0.0
  0
VERTEX
  5
147
  8
0
  6
CONTINUOUS
 62
     7
 10
91.1983986444
 20
-38.5845727094
 30
0.0
  0
SEQEND
  5
217
  8
0
  6
CONTINUOUS
 62
     7
  0
POLYLINE
  5
DD
  8
0
  6
CONTINUOUS
 62
     7
 66
     1
 10
0.0
 20
0.0
 30
0.0
 70
   128
  0
VERTEX
  5
148
  8
0
  6
CONTINUOUS
 62
     7
 10
101.7683148384
 20
-46.3593936798
 30
0.0
  0
VERTEX
  5
149
  8
0
  6
CONTINUOUS
 62
     7
 10
98.8795042251
 20
-47.111399916
 30
0.0
  0
VERTEX
  5
14A
  8
0
  6
CONTINUOUS
 62
     7
 10
96.5899084523
 20
-47.6235930975
 30
0.0
  0
SEQEND
  5
218
  8
0
  6
CONTINUOUS
 62
     7
  0
POLYLINE
  5
DE
  8
0
  6
CONTINUOUS
 62
     7
 66
     1
 10
0.0
 20
0.0
 30
0.0
 70
   128
  0
VERTEX
  5
14B
  8
0
  6
CONTINUOUS
 62
     7
 10
96.5898633003
 20
-47.6235930975
 30
0.0
  0
VERTEX
  5
14C
  8
0
  6
CONTINUOUS
 62
     7
 10
93.3926342077
 20
-48.4567527581
 30
0.0
  0
VERTEX
  5
14D
  8
0
  6
CONTINUOUS
 62
     7
 10
91.0388865199
 20
-49.5271044498
 30
0.0
  0
SEQEND
  5
219
  8
0
  6
CONTINUOUS
 62
     7
  0
POLYLINE
  5
DF
  8
0
  6
CONTINUOUS
 62
     7
 66
     1
 10
0.0
 20
0.0
 30
0.0
 70
   128
  0
VERTEX
  5
14E
  8
0
  6
CONTINUOUS
 62
     7
 10
91.0388827324
 20
-49.5271044498
 30
0.0
  0
VERTEX
  5
14F
  8
0
  6
CONTINUOUS
 62
     7
 10
90.0999876986
 20
-50.6251640962
 30
0.0
  0
VERTEX
  5
150
  8
0
  6
CONTINUOUS
 62
     7
 10
89.8372285153
 20
-51.7283717678
 30
0.0
  0
SEQEND
  5
21A
  8
0
  6
CONTINUOUS
 62
     7
  0
POLYLINE
  5
E0
  8
0
  6
CONTINUOUS
 62
     7
 66
     1
 10
0.0
 20
0.0
 30
0.0
 70
   128
  0
VERTEX
  5
151
  8
0
  6
CONTINUOUS
 62
     7
 10
89.8371934891
 20
-51.7283717678
 30
0.0
  0
VERTEX
  5
152
  8
0
  6
CONTINUOUS
 62
     7
 10
90.2660097976
 20
-53.2347150078
 30
0.0
  0
VERTEX
  5
153
  8
0
  6
CONTINUOUS
 62
     7
 10
91.4304483188
 20
-54.2893438914
 30
0.0
  0
VERTEX
  5
154
  8
0
  6
CONTINUOUS
 62
     7
 10
94.5056166922
 20
-54.9186142577
 30
0.0
  0
SEQEND
  5
21B
  8
0
  6
CONTINUOUS
 62
     7
  0
POLYLINE
  5
E1
  8
0
  6
CONTINUOUS
 62
     7
 66
     1
 10
0.0
 20
0.0
 30
0.0
 70
   128
  0
VERTEX
  5
155
  8
0
  6
CONTINUOUS
 62
     7
 10
94.5056080818
 20
-54.9186142577
 30
0.0
  0
VERTEX
  5
156
  8
0
  6
CONTINUOUS
 62
     7
 10
97.8617020523
 20
-54.3918897352
 30
0.0
  0
VERTEX
  5
157
  8
0
  6
CONTINUOUS
 62
     7
 10
100.8495209548
 20
-52.7836407746
 30
0.0
  0
VERTEX
  5
158
  8
0
  6
CONTINUOUS
 62
     7
 10
102.3692708222
 20
-50.611887352
 30
0.0
  0
VERTEX
  5
159
  8
0
  6
CONTINUOUS
 62
     7
 10
102.768344741
 20
-47.9745197713
 30
0.0
  0
SEQEND
  5
21C
  8
0
  6
CONTINUOUS
 62
     7
  0
ARC
  5
E2
  8
0
  6
CONTINUOUS
 62
     7
 10
152.3111094938
 20
-40.5395432172
 30
0.0
 40
16.93349976830281
 50
88.5188407995
 51
144.4051658641
  0
POLYLINE
  5
E3
  8
0
  6
CONTINUOUS
 62
     7
 66
     1
 10
0.0
 20
0.0
 30
0.0
 70
   128
  0
VERTEX
  5
15A
  8
0
  6
CONTINUOUS
 62
     7
 10
152.7487039566
 20
-23.6117012902
 30
0.0
  0
VERTEX
  5
15B
  8
0
  6
CONTINUOUS
 62
     7
 10
156.93814393
 20
-24.0926347733
 30
0.0
  0
VERTEX
  5
15C
  8
0
  6
CONTINUOUS
 62
     7
 10
160.7980044247
 20
-25.7644579204
 30
0.0
  0
VERTEX
  5
15D
  8
0
  6
CONTINUOUS
 62
     7
 10
163.7644557766
 20
-28.7394439563
 30
0.0
  0
VERTEX
  5
15E
  8
0
  6
CONTINUOUS
 62
     7
 10
165.591079384
 20
-33.3462016673
 30
0.0
  0
VERTEX
  5
15F
  8
0
  6
CONTINUOUS
 62
     7
 10
166.0627557405
 20
-38.2974508853
 30
0.0
  0
SEQEND
  5
21D
  8
0
  6
CONTINUOUS
 62
     7
  0
POLYLINE
  5
E4
  8
0
  6
CONTINUOUS
 62
     7
 66
     1
 10
0.0
 20
0.0
 30
0.0
 70
   128
  0
VERTEX
  5
160
  8
0
  6
CONTINUOUS
 62
     7
 10
151.7703533173
 20
-41.6791079246
 30
0.0
  0
VERTEX
  5
161
  8
0
  6
CONTINUOUS
 62
     7
 10
151.4746971185
 20
-38.935500699
 30
0.0
  0
VERTEX
  5
162
  8
0
  6
CONTINUOUS
 62
     7
 10
150.1709583454
 20
-36.5412109753
 30
0.0
  0
VERTEX
  5
163
  8
0
  6
CONTINUOUS
 62
     7
 10
148.291995641
 20
-35.480103306
 30
0.0
  0
VERTEX
  5
164
  8
0
  6
CONTINUOUS
 62
     7
 10
146.1450084619
 20
-35.1816473869
 30
0.0
  0
SEQEND
  5
21E
  8
0
  6
CONTINUOUS
 62
     7
  0
POLYLINE
  5
E5
  8
0
  6
CONTINUOUS
 62
     7
 66
     1
 10
0.0
 20
0.0
 30
0.0
 70
   128
  0
VERTEX
  5
165
  8
0
  6
CONTINUOUS
 62
     7
 10
146.1449861526
 20
-35.1816473869
 30
0.0
  0
VERTEX
  5
166
  8
0
  6
CONTINUOUS
 62
     7
 10
143.0319206311
 20
-35.881226979
 30
0.0
  0
VERTEX
  5
167
  8
0
  6
CONTINUOUS
 62
     7
 10
140.7143876156
 20
-38.0525375935
 30
0.0
  0
VERTEX
  5
168
  8
0
  6
CONTINUOUS
 62
     7
 10
139.7413015465
 20
-41.1004146219
 30
0.0
  0
VERTEX
  5
169
  8
0
  6
CONTINUOUS
 62
     7
 10
139.5199382246
 20
-44.305740908
 30
0.0
  0
SEQEND
  5
21F
  8
0
  6
CONTINUOUS
 62
     7
  0
POLYLINE
  5
E6
  8
0
  6
CONTINUOUS
 62
     7
 66
     1
 10
0.0
 20
0.0
 30
0.0
 70
   128
  0
VERTEX
  5
16A
  8
0
  6
CONTINUOUS
 62
     7
 10
187.8414154053
 20
-46.7515934835
 30
0.0
  0
VERTEX
  5
16B
  8
0
  6
CONTINUOUS
 62
     7
 10
188.4959750682
 20
-49.7450023221
 30
0.0
  0
VERTEX
  5
16C
  8
0
  6
CONTINUOUS
 62
     7
 10
189.6811843073
 20
-51.8347131841
 30
0.0
  0
SEQEND
  5
220
  8
0
  6
CONTINUOUS
 62
     7
  0
POLYLINE
  5
E7
  8
0
  6
CONTINUOUS
 62
     7
 66
     1
 10
0.0
 20
0.0
 30
0.0
 70
   128
  0
VERTEX
  5
16D
  8
0
  6
CONTINUOUS
 62
     7
 10
189.6811723709
 20
-51.8347131841
 30
0.0
  0
VERTEX
  5
16E
  8
0
  6
CONTINUOUS
 62
     7
 10
192.4153959747
 20
-53.7852880762
 30
0.0
  0
VERTEX
  5
16F
  8
0
  6
CONTINUOUS
 62
     7
 10
195.0301575487
 20
-54.2380291932
 30
0.0
  0
SEQEND
  5
221
  8
0
  6
CONTINUOUS
 62
     7
  0
POLYLINE
  5
E8
  8
0
  6
CONTINUOUS
 62
     7
 66
     1
 10
0.0
 20
0.0
 30
0.0
 70
   128
  0
VERTEX
  5
170
  8
0
  6
CONTINUOUS
 62
     7
 10
195.0300931931
 20
-54.2380291932
 30
0.0
  0
VERTEX
  5
171
  8
0
  6
CONTINUOUS
 62
     7
 10
197.3145907213
 20
-53.8996495306
 30
0.0
  0
VERTEX
  5
172
  8
0
  6
CONTINUOUS
 62
     7
 10
198.9860582362
 20
-53.1852491715
 30
0.0
  0
SEQEND
  5
222
  8
0
  6
CONTINUOUS
 62
     7
  0
POLYLINE
  5
E9
  8
0
  6
CONTINUOUS
 62
     7
 66
     1
 10
0.0
 20
0.0
 30
0.0
 70
   128
  0
VERTEX
  5
173
  8
0
  6
CONTINUOUS
 62
     7
 10
198.9860534668
 20
-53.1852491715
 30
0.0
  0
VERTEX
  5
174
  8
0
  6
CONTINUOUS
 62
     7
 10
200.4658711017
 20
-51.97308115
 30
0.0
  0
VERTEX
  5
175
  8
0
  6
CONTINUOUS
 62
     7
 10
201.453179095
 20
-50.8351038706
 30
0.0
  0
SEQEND
  5
223
  8
0
  6
CONTINUOUS
 62
     7
  0
POLYLINE
  5
EA
  8
0
  6
CONTINUOUS
 62
     7
 66
     1
 10
0.0
 20
0.0
 30
0.0
 70
   128
  0
VERTEX
  5
176
  8
0
  6
CONTINUOUS
 62
     7
 10
216.4260149002
 20
-52.1962739996
 30
0.0
  0
VERTEX
  5
177
  8
0
  6
CONTINUOUS
 62
     7
 10
213.7270659923
 20
-56.1218819477
 30
0.0
  0
VERTEX
  5
178
  8
0
  6
CONTINUOUS
 62
     7
 10
210.267326009
 20
-59.389493402
 30
0.0
  0
VERTEX
  5
179
  8
0
  6
CONTINUOUS
 62
     7
 10
206.0490824804
 20
-61.5810617279
 30
0.0
  0
VERTEX
  5
17A
  8
0
  6
CONTINUOUS
 62
     7
 10
200.5667817076
 20
-62.7834667782
 30
0.0
  0
VERTEX
  5
17B
  8
0
  6
CONTINUOUS
 62
     7
 10
194.9557185573
 20
-63.0856350318
 30
0.0
  0
SEQEND
  5
224
  8
0
  6
CONTINUOUS
 62
     7
  0
POLYLINE
  5
EB
  8
0
  6
CONTINUOUS
 62
     7
 66
     1
 10
0.0
 20
0.0
 30
0.0
 70
   128
  0
VERTEX
  5
17C
  8
0
  6
CONTINUOUS
 62
     7
 10
194.9557065964
 20
-63.0856350318
 30
0.0
  0
VERTEX
  5
17D
  8
0
  6
CONTINUOUS
 62
     7
 10
188.7017726613
 20
-62.6460976429
 30
0.0
  0
VERTEX
  5
17E
  8
0
  6
CONTINUOUS
 62
     7
 10
182.7160515056
 20
-60.8437351131
 30
0.0
  0
VERTEX
  5
17F
  8
0
  6
CONTINUOUS
 62
     7
 10
177.7905891067
 20
-57.0128772251
 30
0.0
  0
VERTEX
  5
180
  8
0
  6
CONTINUOUS
 62
     7
 10
175.0108590374
 20
-52.9541345041
 30
0.0
  0
VERTEX
  5
181
  8
0
  6
CONTINUOUS
 62
     7
 10
173.3687136239
 20
-48.3195255518
 30
0.0
  0
VERTEX
  5
182
  8
0
  6
CONTINUOUS
 62
     7
 10
172.8686063856
 20
-43.4231071524
 30
0.0
  0
SEQEND
  5
225
  8
0
  6
CONTINUOUS
 62
     7
  0
POLYLINE
  5
EC
  8
0
  6
CONTINUOUS
 62
     7
 66
     1
 10
0.0
 20
0.0
 30
0.0
 70
   128
  0
VERTEX
  5
183
  8
0
  6
CONTINUOUS
 62
     7
 10
172.8684902191
 20
-43.4231071524
 30
0.0
  0
VERTEX
  5
184
  8
0
  6
CONTINUOUS
 62
     7
 10
173.6593401461
 20
-37.3177716336
 30
0.0
  0
VERTEX
  5
185
  8
0
  6
CONTINUOUS
 62
     7
 10
176.2822034786
 20
-31.7591390626
 30
0.0
  0
VERTEX
  5
186
  8
0
  6
CONTINUOUS
 62
     7
 10
180.6324655224
 20
-27.4146919559
 30
0.0
  0
VERTEX
  5
187
  8
0
  6
CONTINUOUS
 62
     7
 10
184.9201818114
 20
-25.1694078669
 30
0.0
  0
VERTEX
  5
188
  8
0
  6
CONTINUOUS
 62
     7
 10
189.6106494658
 20
-23.9610135163
 30
0.0
  0
VERTEX
  5
189
  8
0
  6
CONTINUOUS
 62
     7
 10
194.4452797589
 20
-23.6117012902
 30
0.0
  0
SEQEND
  5
226
  8
0
  6
CONTINUOUS
 62
     7
  0
POLYLINE
  5
ED
  8
0
  6
CONTINUOUS
 62
     7
 66
     1
 10
0.0
 20
0.0
 30
0.0
 70
   128
  0
VERTEX
  5
18A
  8
0
  6
CONTINUOUS
 62
     7
 10
194.9452161789
 20
-23.6180049003
 30
0.0
  0
VERTEX
  5
18B
  8
0
  6
CONTINUOUS
 62
     7
 10
201.5315444371
 20
-24.1721206951
 30
0.0
  0
VERTEX
  5
18C
  8
0
  6
CONTINUOUS
 62
     7
 10
207.7828825541
 20
-26.254928154
 30
0.0
  0
VERTEX
  5
18D
  8
0
  6
CONTINUOUS
 62
     7
 10
212.8526453994
 20
-30.4404908293
 30
0.0
  0
VERTEX
  5
18E
  8
0
  6
CONTINUOUS
 62
     7
 10
215.4549785046
 20
-34.9188662221
 30
0.0
  0
VERTEX
  5
18F
  8
0
  6
CONTINUOUS
 62
     7
 10
216.7520775247
 20
-39.9416596307
 30
0.0
  0
VERTEX
  5
190
  8
0
  6
CONTINUOUS
 62
     7
 10
217.1066355787
 20
-45.1245698137
 30
0.0
  0
SEQEND
  5
227
  8
0
  6
CONTINUOUS
 62
     7
  0
ARC
  5
EE
  8
0
  6
CONTINUOUS
 62
     7
 10
195.4156853152
 20
-39.1686577254
 30
0.0
 40
6.718663282966065
 50
359.1770333783
 51
93.0170593846
  0
POLYLINE
  5
EF
  8
0
  6
CONTINUOUS
 62
     7
 66
     1
 10
0.0
 20
0.0
 30
0.0
 70
   128
  0
VERTEX
  5
191
  8
0
  6
CONTINUOUS
 62
     7
 10
195.0620412827
 20
-32.4593071288
 30
0.0
  0
VERTEX
  5
192
  8
0
  6
CONTINUOUS
 62
     7
 10
191.6876739584
 20
-33.1764882155
 30
0.0
  0
VERTEX
  5
193
  8
0
  6
CONTINUOUS
 62
     7
 10
189.5429404661
 20
-34.8413548546
 30
0.0
  0
SEQEND
  5
228
  8
0
  6
CONTINUOUS
 62
     7
  0
POLYLINE
  5
F0
  8
0
  6
CONTINUOUS
 62
     7
 66
     1
 10
0.0
 20
0.0
 30
0.0
 70
   128
  0
VERTEX
  5
194
  8
0
  6
CONTINUOUS
 62
     7
 10
189.542889595
 20
-34.8413548546
 30
0.0
  0
VERTEX
  5
195
  8
0
  6
CONTINUOUS
 62
     7
 10
188.2935661918
 20
-37.1995400054
 30
0.0
  0
VERTEX
  5
196
  8
0
  6
CONTINUOUS
 62
     7
 10
187.8733802297
 20
-39.2651577739
 30
0.0
  0
SEQEND
  5
229
  8
0
  6
CONTINUOUS
 62
     7
  0
POLYLINE
  5
F1
  8
0
  6
CONTINUOUS
 62
     7
 66
     1
 10
0.0
 20
0.0
 30
0.0
 70
   128
  0
VERTEX
  5
197
  8
0
  6
CONTINUOUS
 62
     7
 10
240.9271001816
 20
-48.4955927114
 30
0.0
  0
VERTEX
  5
198
  8
0
  6
CONTINUOUS
 62
     7
 10
241.0195561068
 20
-50.3091689417
 30
0.0
  0
VERTEX
  5
199
  8
0
  6
CONTINUOUS
 62
     7
 10
241.4056492101
 20
-51.6752010596
 30
0.0
  0
SEQEND
  5
22A
  8
0
  6
CONTINUOUS
 62
     7
  0
POLYLINE
  5
F2
  8
0
  6
CONTINUOUS
 62
     7
 66
     1
 10
0.0
 20
0.0
 30
0.0
 70
   128
  0
VERTEX
  5
19A
  8
0
  6
CONTINUOUS
 62
     7
 10
241.4056062698
 20
-51.6752010596
 30
0.0
  0
VERTEX
  5
19B
  8
0
  6
CONTINUOUS
 62
     7
 10
242.7014456451
 20
-52.6894946303
 30
0.0
  0
VERTEX
  5
19C
  8
0
  6
CONTINUOUS
 62
     7
 10
244.0003797685
 20
-52.8768590641
 30
0.0
  0
SEQEND
  5
22B
  8
0
  6
CONTINUOUS
 62
     7
  0
POLYLINE
  5
F3
  8
0
  6
CONTINUOUS
 62
     7
 66
     1
 10
0.0
 20
0.0
 30
0.0
 70
   128
  0
VERTEX
  5
19D
  8
0
  6
CONTINUOUS
 62
     7
 10
244.0003156662
 20
-52.8768590641
 30
0.0
  0
VERTEX
  5
19E
  8
0
  6
CONTINUOUS
 62
     7
 10
246.6423853597
 20
-52.5088538741
 30
0.0
  0
VERTEX
  5
19F
  8
0
  6
CONTINUOUS
 62
     7
 10
248.6687679454
 20
-51.9623228837
 30
0.0
  0
SEQEND
  5
22C
  8
0
  6
CONTINUOUS
 62
     7
  0
POLYLINE
  5
F4
  8
0
  6
CONTINUOUS
 62
     7
 66
     1
 10
0.0
 20
0.0
 30
0.0
 70
   128
  0
VERTEX
  5
1A0
  8
0
  6
CONTINUOUS
 62
     7
 10
249.7746944427
 20
-61.9158794522
 30
0.0
  0
VERTEX
  5
1A1
  8
0
  6
CONTINUOUS
 62
     7
 10
244.1579410818
 20
-62.8322833996
 30
0.0
  0
VERTEX
  5
1A2
  8
0
  6
CONTINUOUS
 62
     7
 10
239.6935524072
 20
-63.0856350318
 30
0.0
  0
SEQEND
  5
22D
  8
0
  6
CONTINUOUS
 62
     7
  0
POLYLINE
  5
F5
  8
0
  6
CONTINUOUS
 62
     7
 66
     1
 10
0.0
 20
0.0
 30
0.0
 70
   128
  0
VERTEX
  5
1A3
  8
0
  6
CONTINUOUS
 62
     7
 10
239.6935224533
 20
-63.0856350318
 30
0.0
  0
VERTEX
  5
1A4
  8
0
  6
CONTINUOUS
 62
     7
 10
235.3714019771
 20
-62.8082432457
 30
0.0
  0
VERTEX
  5
1A5
  8
0
  6
CONTINUOUS
 62
     7
 10
231.2708459061
 20
-61.4870601701
 30
0.0
  0
VERTEX
  5
1A6
  8
0
  6
CONTINUOUS
 62
     7
 10
228.2964813211
 20
-58.3906932771
 30
0.0
  0
VERTEX
  5
1A7
  8
0
  6
CONTINUOUS
 62
     7
 10
227.1659604256
 20
-55.1912710356
 30
0.0
  0
VERTEX
  5
1A8
  8
0
  6
CONTINUOUS
 62
     7
 10
226.7377487698
 20
-51.8143844797
 30
0.0
  0
VERTEX
  5
1A9
  8
0
  6
CONTINUOUS
 62
     7
 10
226.6348264819
 20
-48.4105195783
 30
0.0
  0
SEQEND
  5
22E
  8
0
  6
CONTINUOUS
 62
     7
  0
POLYLINE
  5
F6
  8
0
  6
CONTINUOUS
 62
     7
 66
     1
 10
0.0
 20
0.0
 30
0.0
 70
   128
  0
VERTEX
  5
1AA
  8
0
  6
CONTINUOUS
 62
     7
 10
306.2632083893
 20
-44.9225211227
 30
0.0
  0
VERTEX
  5
1AB
  8
0
  6
CONTINUOUS
 62
     7
 10
304.2868504031
 20
-50.7105438974
 30
0.0
  0
VERTEX
  5
1AC
  8
0
  6
CONTINUOUS
 62
     7
 10
301.0117086837
 20
-55.8657537483
 30
0.0
  0
VERTEX
  5
1AD
  8
0
  6
CONTINUOUS
 62
     7
 10
296.3755400954
 20
-59.8380786155
 30
0.0
  0
VERTEX
  5
1AE
  8
0
  6
CONTINUOUS
 62
     7
 10
292.0029618404
 20
-61.8252930715
 30
0.0
  0
VERTEX
  5
1AF
  8
0
  6
CONTINUOUS
 62
     7
 10
287.2991598414
 20
-62.8146097613
 30
0.0
  0
VERTEX
  5
1B0
  8
0
  6
CONTINUOUS
 62
     7
 10
282.4959724799
 20
-63.0856350318
 30
0.0
  0
SEQEND
  5
22F
  8
0
  6
CONTINUOUS
 62
     7
  0
POLYLINE
  5
F7
  8
0
  6
CONTINUOUS
 62
     7
 66
     1
 10
0.0
 20
0.0
 30
0.0
 70
   128
  0
VERTEX
  5
1B1
  8
0
  6
CONTINUOUS
 62
     7
 10
282.4957370758
 20
-63.0856350318
 30
0.0
  0
VERTEX
  5
1B2
  8
0
  6
CONTINUOUS
 62
     7
 10
276.3755045624
 20
-62.7264739512
 30
0.0
  0
VERTEX
  5
1B3
  8
0
  6
CONTINUOUS
 62
     7
 10
270.401014554
 20
-61.3767450039
 30
0.0
  0
VERTEX
  5
1B4
  8
0
  6
CONTINUOUS
 62
     7
 10
265.0010171738
 20
-58.5211760293
 30
0.0
  0
VERTEX
  5
1B5
  8
0
  6
CONTINUOUS
 62
     7
 10
260.6970504008
 20
-54.1728788823
 30
0.0
  0
VERTEX
  5
1B6
  8
0
  6
CONTINUOUS
 62
     7
 10
257.4356247408
 20
-48.6549136678
 30
0.0
  0
VERTEX
  5
1B7
  8
0
  6
CONTINUOUS
 62
     7
 10
255.7081917675
 20
-42.4770126502
 30
0.0
  0
VERTEX
  5
1B8
  8
0
  6
CONTINUOUS
 62
     7
 10
255.2193991913
 20
-36.074915284
 30
0.0
  0
SEQEND
  5
230
  8
0
  6
CONTINUOUS
 62
     7
  0
POLYLINE
  5
F8
  8
0
  6
CONTINUOUS
 62
     7
 66
     1
 10
0.0
 20
0.0
 30
0.0
 70
   128
  0
VERTEX
  5
1B9
  8
0
  6
CONTINUOUS
 62
     7
 10
255.2192211151
 20
-36.074915284
 30
0.0
  0
VERTEX
  5
1BA
  8
0
  6
CONTINUOUS
 62
     7
 10
255.6410607478
 20
-30.0989647789
 30
0.0
  0
VERTEX
  5
1BB
  8
0
  6
CONTINUOUS
 62
     7
 10
257.0779448955
 20
-24.2875955732
 30
0.0
  0
VERTEX
  5
1BC
  8
0
  6
CONTINUOUS
 62
     7
 10
259.8347280886
 20
-18.9796573726
 30
0.0
  0
VERTEX
  5
1BD
  8
0
  6
CONTINUOUS
 62
     7
 10
263.9351976768
 20
-14.6291894057
 30
0.0
  0
VERTEX
  5
1BE
  8
0
  6
CONTINUOUS
 62
     7
 10
269.3466933097
 20
-11.4769081208
 30
0.0
  0
VERTEX
  5
1BF
  8
0
  6
CONTINUOUS
 62
     7
 10
275.3889566456
 20
-9.803684884
 30
0.0
  0
VERTEX
  5
1C0
  8
0
  6
CONTINUOUS
 62
     7
 10
281.6452411492
 20
-9.3194149355
 30
0.0
  0
SEQEND
  5
231
  8
0
  6
CONTINUOUS
 62
     7
  0
POLYLINE
  5
F9
  8
0
  6
CONTINUOUS
 62
     7
 66
     1
 10
0.0
 20
0.0
 30
0.0
 70
   128
  0
VERTEX
  5
1C1
  8
0
  6
CONTINUOUS
 62
     7
 10
282.1450233459
 20
-9.3227027402
 30
0.0
  0
VERTEX
  5
1C2
  8
0
  6
CONTINUOUS
 62
     7
 10
287.9237575763
 20
-9.8006070154
 30
0.0
  0
VERTEX
  5
1C3
  8
0
  6
CONTINUOUS
 62
     7
 10
293.5058870951
 20
-11.3445208714
 30
0.0
  0
VERTEX
  5
1C4
  8
0
  6
CONTINUOUS
 62
     7
 10
298.4393062902
 20
-14.357305035
 30
0.0
  0
VERTEX
  5
1C5
  8
0
  6
CONTINUOUS
 62
     7
 10
302.8005945553
 20
-19.5892360204
 30
0.0
  0
VERTEX
  5
1C6
  8
0
  6
CONTINUOUS
 62
     7
 10
305.5826939651
 20
-25.8236027499
 30
0.0
  0
SEQEND
  5
232
  8
0
  6
CONTINUOUS
 62
     7
  0
POLYLINE
  5
FA
  8
0
  6
CONTINUOUS
 62
     7
 66
     1
 10
0.0
 20
0.0
 30
0.0
 70
   128
  0
VERTEX
  5
1C7
  8
0
  6
CONTINUOUS
 62
     7
 10
291.2902832031
 20
-29.0563818063
 30
0.0
  0
VERTEX
  5
1C8
  8
0
  6
CONTINUOUS
 62
     7
 10
290.556635885
 20
-26.9997309796
 30
0.0
  0
VERTEX
  5
1C9
  8
0
  6
CONTINUOUS
 62
     7
 10
289.7378229319
 20
-25.4939443592
 30
0.0
  0
SEQEND
  5
233
  8
0
  6
CONTINUOUS
 62
     7
  0
POLYLINE
  5
FB
  8
0
  6
CONTINUOUS
 62
     7
 66
     1
 10
0.0
 20
0.0
 30
0.0
 70
   128
  0
VERTEX
  5
1CA
  8
0
  6
CONTINUOUS
 62
     7
 10
289.737701416
 20
-25.4939443592
 30
0.0
  0
VERTEX
  5
1CB
  8
0
  6
CONTINUOUS
 62
     7
 10
286.3975968194
 20
-22.5687936748
 30
0.0
  0
VERTEX
  5
1CC
  8
0
  6
CONTINUOUS
 62
     7
 10
285.3733383602
 20
-22.1154558182
 30
0.0
  0
VERTEX
  5
1CD
  8
0
  6
CONTINUOUS
 62
     7
 10
284.2902158025
 20
-21.8201773794
 30
0.0
  0
VERTEX
  5
1CE
  8
0
  6
CONTINUOUS
 62
     7
 10
283.0685296223
 20
-21.9129672577
 30
0.0
  0
VERTEX
  5
1CF
  8
0
  6
CONTINUOUS
 62
     7
 10
282.0918750978
 20
-21.5699460967
 30
0.0
  0
SEQEND
  5
234
  8
0
  6
CONTINUOUS
 62
     7
  0
ARC
  5
FC
  8
0
  6
CONTINUOUS
 62
     7
 10
281.7354565376
 20
-31.0969522338
 30
0.0
 40
9.533670149262456
 50
87.8575990072
 51
146.95339796
  0
ARC
  5
FD
  8
0
  6
CONTINUOUS
 62
     7
 10
289.6061655748
 20
-34.624572885
 30
0.0
 40
18.10427668109318
 50
151.1829186943
 51
184.3248620503
  0
POLYLINE
  5
FE
  8
0
  6
CONTINUOUS
 62
     7
 66
     1
 10
0.0
 20
0.0
 30
0.0
 70
   128
  0
VERTEX
  5
1D0
  8
0
  6
CONTINUOUS
 62
     7
 10
271.5532779694
 20
-35.989842151
 30
0.0
  0
VERTEX
  5
1D1
  8
0
  6
CONTINUOUS
 62
     7
 10
271.8495775775
 20
-41.1030562427
 30
0.0
  0
VERTEX
  5
1D2
  8
0
  6
CONTINUOUS
 62
     7
 10
273.1571544735
 20
-46.039358565
 30
0.0
  0
VERTEX
  5
1D3
  8
0
  6
CONTINUOUS
 62
     7
 10
274.5966725672
 20
-48.1470759272
 30
0.0
  0
VERTEX
  5
1D4
  8
0
  6
CONTINUOUS
 62
     7
 10
276.6258999106
 20
-49.6976792549
 30
0.0
  0
VERTEX
  5
1D5
  8
0
  6
CONTINUOUS
 62
     7
 10
279.0255523848
 20
-50.5727494575
 30
0.0
  0
VERTEX
  5
1D6
  8
0
  6
CONTINUOUS
 62
     7
 10
281.5708021578
 20
-50.8351038706
 30
0.0
  0
SEQEND
  5
235
  8
0
  6
CONTINUOUS
 62
     7
  0
POLYLINE
  5
FF
  8
0
  6
CONTINUOUS
 62
     7
 66
     1
 10
0.0
 20
0.0
 30
0.0
 70
   128
  0
VERTEX
  5
1D7
  8
0
  6
CONTINUOUS
 62
     7
 10
281.5706729889
 20
-50.8351038706
 30
0.0
  0
VERTEX
  5
1D8
  8
0
  6
CONTINUOUS
 62
     7
 10
284.5515652088
 20
-50.5064117977
 30
0.0
  0
VERTEX
  5
1D9
  8
0
  6
CONTINUOUS
 62
     7
 10
287.2972970796
 20
-49.320473082
 30
0.0
  0
VERTEX
  5
1DA
  8
0
  6
CONTINUOUS
 62
     7
 10
289.3757959843
 20
-47.1709094406
 30
0.0
  0
VERTEX
  5
1DB
  8
0
  6
CONTINUOUS
 62
     7
 10
290.9931238854
 20
-44.0279861489
 30
0.0
  0
VERTEX
  5
1DC
  8
0
  6
CONTINUOUS
 62
     7
 10
291.9709926748
 20
-40.626327903
 30
0.0
  0
SEQEND
  5
236
  8
0
  6
CONTINUOUS
 62
     7
  0
POLYLINE
  5
100
  8
0
  6
CONTINUOUS
 62
     7
 66
     1
 10
0.0
 20
0.0
 30
0.0
 70
   128
  0
VERTEX
  5
1DD
  8
0
  6
CONTINUOUS
 62
     7
 10
424.6850013733
 20
-44.9225211227
 30
0.0
  0
VERTEX
  5
1DE
  8
0
  6
CONTINUOUS
 62
     7
 10
422.7086516278
 20
-50.7105438974
 30
0.0
  0
VERTEX
  5
1DF
  8
0
  6
CONTINUOUS
 62
     7
 10
419.4335099085
 20
-55.8657537483
 30
0.0
  0
VERTEX
  5
1E0
  8
0
  6
CONTINUOUS
 62
     7
 10
414.7973413202
 20
-59.8380786155
 30
0.0
  0
VERTEX
  5
1E1
  8
0
  6
CONTINUOUS
 62
     7
 10
410.4247630652
 20
-61.8252930715
 30
0.0
  0
VERTEX
  5
1E2
  8
0
  6
CONTINUOUS
 62
     7
 10
405.7209610662
 20
-62.8146097613
 30
0.0
  0
VERTEX
  5
1E3
  8
0
  6
CONTINUOUS
 62
     7
 10
400.9177737046
 20
-63.0856350318
 30
0.0
  0
SEQEND
  5
237
  8
0
  6
CONTINUOUS
 62
     7
  0
POLYLINE
  5
101
  8
0
  6
CONTINUOUS
 62
     7
 66
     1
 10
0.0
 20
0.0
 30
0.0
 70
   128
  0
VERTEX
  5
1E4
  8
0
  6
CONTINUOUS
 62
     7
 10
400.9177684784
 20
-63.0856350318
 30
0.0
  0
VERTEX
  5
1E5
  8
0
  6
CONTINUOUS
 62
     7
 10
394.7973057871
 20
-62.7264739512
 30
0.0
  0
VERTEX
  5
1E6
  8
0
  6
CONTINUOUS
 62
     7
 10
388.8228157788
 20
-61.3767450039
 30
0.0
  0
VERTEX
  5
1E7
  8
0
  6
CONTINUOUS
 62
     7
 10
383.4228183985
 20
-58.5211760293
 30
0.0
  0
VERTEX
  5
1E8
  8
0
  6
CONTINUOUS
 62
     7
 10
379.1188516255
 20
-54.1728788823
 30
0.0
  0
VERTEX
  5
1E9
  8
0
  6
CONTINUOUS
 62
     7
 10
375.8574259656
 20
-48.6549136678
 30
0.0
  0
VERTEX
  5
1EA
  8
0
  6
CONTINUOUS
 62
     7
 10
374.1299929922
 20
-42.4770126502
 30
0.0
  0
VERTEX
  5
1EB
  8
0
  6
CONTINUOUS
 62
     7
 10
373.6412004161
 20
-36.074915284
 30
0.0
  0
SEQEND
  5
238
  8
0
  6
CONTINUOUS
 62
     7
  0
POLYLINE
  5
102
  8
0
  6
CONTINUOUS
 62
     7
 66
     1
 10
0.0
 20
0.0
 30
0.0
 70
   128
  0
VERTEX
  5
1EC
  8
0
  6
CONTINUOUS
 62
     7
 10
373.6410140991
 20
-36.074915284
 30
0.0
  0
VERTEX
  5
1ED
  8
0
  6
CONTINUOUS
 62
     7
 10
374.0628619726
 20
-30.0989647789
 30
0.0
  0
VERTEX
  5
1EE
  8
0
  6
CONTINUOUS
 62
     7
 10
375.4997461203
 20
-24.2875955732
 30
0.0
  0
VERTEX
  5
1EF
  8
0
  6
CONTINUOUS
 62
     7
 10
378.2565293134
 20
-18.9796573726
 30
0.0
  0
VERTEX
  5
1F0
  8
0
  6
CONTINUOUS
 62
     7
 10
382.3569989016
 20
-14.6291894057
 30
0.0
  0
VERTEX
  5
1F1
  8
0
  6
CONTINUOUS
 62
     7
 10
387.7684945345
 20
-11.4769081208
 30
0.0
  0
VERTEX
  5
1F2
  8
0
  6
CONTINUOUS
 62
     7
 10
393.8107578704
 20
-9.803684884
 30
0.0
  0
VERTEX
  5
1F3
  8
0
  6
CONTINUOUS
 62
     7
 10
400.067042374
 20
-9.3194149355
 30
0.0
  0
SEQEND
  5
239
  8
0
  6
CONTINUOUS
 62
     7
  0
POLYLINE
  5
103
  8
0
  6
CONTINUOUS
 62
     7
 66
     1
 10
0.0
 20
0.0
 30
0.0
 70
   128
  0
VERTEX
  5
1F4
  8
0
  6
CONTINUOUS
 62
     7
 10
400.56681633
 20
-9.3227027402
 30
0.0
  0
VERTEX
  5
1F5
  8
0
  6
CONTINUOUS
 62
     7
 10
406.3455588011
 20
-9.8006070154
 30
0.0
  0
VERTEX
  5
1F6
  8
0
  6
CONTINUOUS
 62
     7
 10
411.9276883198
 20
-11.3445208714
 30
0.0
  0
VERTEX
  5
1F7
  8
0
  6
CONTINUOUS
 62
     7
 10
416.8611075149
 20
-14.357305035
 30
0.0
  0
VERTEX
  5
1F8
  8
0
  6
CONTINUOUS
 62
     7
 10
421.2223957801
 20
-19.5892360204
 30
0.0
  0
VERTEX
  5
1F9
  8
0
  6
CONTINUOUS
 62
     7
 10
424.0044951898
 20
-25.8236027499
 30
0.0
  0
SEQEND
  5
23A
  8
0
  6
CONTINUOUS
 62
     7
  0
POLYLINE
  5
104
  8
0
  6
CONTINUOUS
 62
     7
 66
     1
 10
0.0
 20
0.0
 30
0.0
 70
   128
  0
VERTEX
  5
1FA
  8
0
  6
CONTINUOUS
 62
     7
 10
409.7120761871
 20
-29.0563818063
 30
0.0
  0
VERTEX
  5
1FB
  8
0
  6
CONTINUOUS
 62
     7
 10
408.9784371097
 20
-26.9997309796
 30
0.0
  0
VERTEX
  5
1FC
  8
0
  6
CONTINUOUS
 62
     7
 10
408.1596241567
 20
-25.4939443592
 30
0.0
  0
SEQEND
  5
23B
  8
0
  6
CONTINUOUS
 62
     7
  0
ARC
  5
105
  8
0
  6
CONTINUOUS
 62
     7
 10
400.6598228521
 20
-30.6960302703
 30
0.0
 40
9.127254305226698
 50
34.746795097
 51
90.9174650896
  0
ARC
  5
106
  8
0
  6
CONTINUOUS
 62
     7
 10
400.1572567837
 20
-31.0969510246
 30
0.0
 40
9.533668669505783
 50
87.8576423486
 51
146.9534008436
  0
ARC
  5
107
  8
0
  6
CONTINUOUS
 62
     7
 10
408.0280778314
 20
-34.6245840316
 30
0.0
 40
18.10438655620812
 50
151.1830697317
 51
184.324800376
  0
POLYLINE
  5
108
  8
0
  6
CONTINUOUS
 62
     7
 66
     1
 10
0.0
 20
0.0
 30
0.0
 70
   128
  0
VERTEX
  5
1FD
  8
0
  6
CONTINUOUS
 62
     7
 10
389.9750709534
 20
-35.989842151
 30
0.0
  0
VERTEX
  5
1FE
  8
0
  6
CONTINUOUS
 62
     7
 10
390.2713788023
 20
-41.1030562427
 30
0.0
  0
VERTEX
  5
1FF
  8
0
  6
CONTINUOUS
 62
     7
 10
391.5789556982
 20
-46.039358565
 30
0.0
  0
VERTEX
  5
200
  8
0
  6
CONTINUOUS
 62
     7
 10
393.0184737919
 20
-48.1470759272
 30
0.0
  0
VERTEX
  5
201
  8
0
  6
CONTINUOUS
 62
     7
 10
395.0477011354
 20
-49.6976792549
 30
0.0
  0
VERTEX
  5
202
  8
0
  6
CONTINUOUS
 62
     7
 10
397.4473536095
 20
-50.5727494575
 30
0.0
  0
VERTEX
  5
203
  8
0
  6
CONTINUOUS
 62
     7
 10
399.9926033826
 20
-50.8351038706
 30
0.0
  0
SEQEND
  5
23C
  8
0
  6
CONTINUOUS
 62
     7
  0
POLYLINE
  5
109
  8
0
  6
CONTINUOUS
 62
     7
 66
     1
 10
0.0
 20
0.0
 30
0.0
 70
   128
  0
VERTEX
  5
204
  8
0
  6
CONTINUOUS
 62
     7
 10
399.9924659729
 20
-50.8351038706
 30
0.0
  0
VERTEX
  5
205
  8
0
  6
CONTINUOUS
 62
     7
 10
402.9745499577
 20
-50.506920287
 30
0.0
  0
VERTEX
  5
206
  8
0
  6
CONTINUOUS
 62
     7
 10
405.7198375983
 20
-49.3199676214
 30
0.0
  0
VERTEX
  5
207
  8
0
  6
CONTINUOUS
 62
     7
 10
407.7979520283
 20
-47.1703883208
 30
0.0
  0
VERTEX
  5
208
  8
0
  6
CONTINUOUS
 62
     7
 10
409.4150351316
 20
-44.0276909017
 30
0.0
  0
VERTEX
  5
209
  8
0
  6
CONTINUOUS
 62
     7
 10
410.3927938996
 20
-40.626327903
 30
0.0
  0
SEQEND
  5
23D
  8
0
  6
CONTINUOUS
 62
     7
  0
ENDSEC
  0
EOF
