  0
SECTION
  2
HEADER
  9
$ACADVER
  1
AC1009
  9
$INSBASE
 10
0.0
 20
0.0
 30
0.0
  9
$EXTMIN
 10
0.0
 20
-0.0456999987363815
 30
0.0
  9
$EXTMAX
 10
139.94889831543
 20
128.7333984375
 30
0.0
  9
$LIMMIN
 10
0.0
 20
0.0
  9
$LIMMAX
 10
100.0
 20
100.0
  9
$ORTHOMODE
 70
     0
  9
$REGENMODE
 70
     1
  9
$FILLMODE
 70
     1
  9
$QTEXTMODE
 70
     0
  9
$MIRRTEXT
 70
     0
  9
$DRAGMODE
 70
     2
  9
$LTSCALE
 40
1.0
  9
$OSMODE
 70
   807
  9
$ATTMODE
 70
     1
  9
$TEXTSIZE
 40
0.2
  9
$TRACEWID
 40
0.05
  9
$TEXTSTYLE
  7
STANDARD
  9
$CLAYER
  8
0
  9
$CELTYPE
  6
CONTINUOUS
  9
$CECOLOR
 62
   256
  9
$DIMSCALE
 40
1.0
  9
$DIMASZ
 40
0.18
  9
$DIMEXO
 40
0.0625
  9
$DIMDLI
 40
0.38
  9
$DIMRND
 40
0.0
  9
$DIMDLE
 40
0.0
  9
$DIMEXE
 40
0.18
  9
$DIMTP
 40
0.0
  9
$DIMTM
 40
0.0
  9
$DIMTXT
 40
0.18
  9
$DIMCEN
 40
0.09
  9
$DIMTSZ
 40
0.0
  9
$DIMTOL
 70
     0
  9
$DIMLIM
 70
     0
  9
$DIMTIH
 70
     1
  9
$DIMTOH
 70
     1
  9
$DIMSE1
 70
     0
  9
$DIMSE2
 70
     0
  9
$DIMTAD
 70
     0
  9
$DIMZIN
 70
     0
  9
$DIMBLK
  1

  9
$DIMASO
 70
     1
  9
$DIMSHO
 70
     1
  9
$DIMPOST
  1

  9
$DIMAPOST
  1

  9
$DIMALT
 70
     0
  9
$DIMALTD
 70
     2
  9
$DIMALTF
 40
25.399999999999999
  9
$DIMLFAC
 40
1.0
  9
$DIMTOFL
 70
     0
  9
$DIMTVP
 40
0.0
  9
$DIMTIX
 70
     0
  9
$DIMSOXD
 70
     0
  9
$DIMSAH
 70
     0
  9
$DIMBLK1
  1

  9
$DIMBLK2
  1

  9
$DIMSTYLE
  2
STANDARD
  9
$DIMCLRD
 70
     0
  9
$DIMCLRE
 70
     0
  9
$DIMCLRT
 70
     0
  9
$DIMTFAC
 40
1.0
  9
$DIMGAP
 40
0.09
  9
$LUNITS
 70
     2
  9
$LUPREC
 70
     4
  9
$SKETCHINC
 40
0.1
  9
$FILLETRAD
 40
0.0
  9
$AUNITS
 70
     0
  9
$AUPREC
 70
     0
  9
$MENU
  1
.
  9
$ELEVATION
 40
0.0
  9
$PELEVATION
 40
0.0
  9
$THICKNESS
 40
0.0
  9
$LIMCHECK
 70
     0
  9
$BLIPMODE
 70
     0
  9
$CHAMFERA
 40
0.0
  9
$CHAMFERB
 40
0.0
  9
$SKPOLY
 70
     0
  9
$TDCREATE
 40
2457054.8145723501
  9
$TDUPDATE
 40
2457054.833439271
  9
$TDINDWG
 40
0.0022514583
  9
$TDUSRTIMER
 40
0.0022513079
  9
$USRTIMER
 70
     1
  9
$ANGBASE
 50
0.0
  9
$ANGDIR
 70
     0
  9
$PDMODE
 70
     0
  9
$PDSIZE
 40
0.0
  9
$PLINEWID
 40
0.0
  9
$COORDS
 70
     1
  9
$SPLFRAME
 70
     0
  9
$SPLINETYPE
 70
     6
  9
$SPLINESEGS
 70
     8
  9
$ATTDIA
 70
     1
  9
$ATTREQ
 70
     1
  9
$HANDLING
 70
     1
  9
$HANDSEED
  5
3BF
  9
$SURFTAB1
 70
     6
  9
$SURFTAB2
 70
     6
  9
$SURFTYPE
 70
     6
  9
$SURFU
 70
     6
  9
$SURFV
 70
     6
  9
$UCSNAME
  2

  9
$UCSORG
 10
0.0
 20
0.0
 30
0.0
  9
$UCSXDIR
 10
1.0
 20
0.0
 30
0.0
  9
$UCSYDIR
 10
0.0
 20
1.0
 30
0.0
  9
$PUCSNAME
  2

  9
$PUCSORG
 10
0.0
 20
0.0
 30
0.0
  9
$PUCSXDIR
 10
1.0
 20
0.0
 30
0.0
  9
$PUCSYDIR
 10
0.0
 20
1.0
 30
0.0
  9
$USERI1
 70
     0
  9
$USERI2
 70
     0
  9
$USERI3
 70
     0
  9
$USERI4
 70
     0
  9
$USERI5
 70
     0
  9
$USERR1
 40
0.0
  9
$USERR2
 40
0.0
  9
$USERR3
 40
0.0
  9
$USERR4
 40
0.0
  9
$USERR5
 40
0.0
  9
$WORLDVIEW
 70
     1
  9
$SHADEDGE
 70
     3
  9
$SHADEDIF
 70
    70
  9
$TILEMODE
 70
     1
  9
$MAXACTVP
 70
    64
  9
$PLIMCHECK
 70
     0
  9
$PEXTMIN
 10
1.0000000000000000E+020
 20
1.0000000000000000E+020
 30
1.0000000000000000E+020
  9
$PEXTMAX
 10
-1.0000000000000000E+020
 20
-1.0000000000000000E+020
 30
-1.0000000000000000E+020
  9
$PLIMMIN
 10
0.0
 20
0.0
  9
$PLIMMAX
 10
12.0
 20
9.0
  9
$UNITMODE
 70
     0
  9
$VISRETAIN
 70
     1
  9
$PLINEGEN
 70
     0
  9
$PSLTSCALE
 70
     1
  0
ENDSEC
  0
SECTION
  2
TABLES
  0
TABLE
  2
VPORT
 70
     1
  0
VPORT
  2
*ACTIVE
 70
     0
 10
0.0
 20
0.0
 11
1.0
 21
1.0
 12
121.4588296610132
 22
13.456552672323211
 13
0.0
 23
0.0
 14
0.0
 24
0.0
 15
0.0
 25
0.0
 16
0.0
 26
0.0
 36
1.0
 17
0.0
 27
0.0
 37
0.0
 40
232.99019772608651
 41
1.6386066763425251
 42
50.0
 43
0.0
 44
0.0
 50
0.0
 51
0.0
 71
     0
 72
  1000
 73
     1
 74
     3
 75
     0
 76
     0
 77
     0
 78
     0
  0
ENDTAB
  0
TABLE
  2
LTYPE
 70
     6
  0
LTYPE
  2
CONTINUOUS
 70
     0
  3
Solid line
 72
    65
 73
     0
 40
0.0
  0
LTYPE
  2
CENTER
 70
     0
  3
Center ____ _ ____ _ ____ _ ____ _ ____ _ ____
 72
    65
 73
     4
 40
2.0
 49
1.25
 49
-0.25
 49
1.25
 49
-0.25
  0
LTYPE
  2
DASHED
 70
     0
  3
Dashed __ __ __ __ __ __ __ __ __ __ __ __ __ _
 72
    65
 73
     2
 40
0.75
 49
0.5
 49
-0.25
  0
LTYPE
  2
PHANTOM
 70
     0
  3
Phantom ______  __  __  ______  __  __  ______
 72
    65
 73
     6
 40
2.5
 49
1.25
 49
-0.25
 49
0.25
 49
-0.25
 49
0.25
 49
-0.25
  0
LTYPE
  2
HIDDEN
 70
     0
  3
Hidden __ __ __ __ __ __ __ __ __ __ __ __ __ __
 72
    65
 73
     2
 40
9.5250000000000004
 49
6.3499999999999979
 49
-3.174999999999998
  0
ENDTAB
  0
TABLE
  2
LAYER
 70
     3
  0
LAYER
  2
0
 70
     0
 62
     7
  6
CONTINUOUS
  0
LAYER
  2
SECOND
 70
     0
 62
   150
  6
CONTINUOUS
  0
LAYER
  2
FIRST
 70
     0
 62
     1
  6
CONTINUOUS
  0
ENDTAB
  0
TABLE
  2
STYLE
 70
     4
  0
STYLE
  2
STANDARD
 70
     0
 40
0.0
 41
1.0
 50
0.0
 71
     0
 42
0.2
  3
txt
  4

  0
STYLE
  2
ANNOTATIVE
 70
     0
 40
0.0
 41
1.0
 50
0.0
 71
     0
 42
0.2
  3
txt
  4

  0
STYLE
  2
NOTES
 70
     0
 40
3.0
 41
1.0
 50
0.0
 71
     0
 42
3.0
  3
txt
  4

  0
STYLE
  2
TITLES
 70
     0
 40
6.0
 41
1.0
 50
0.0
 71
     0
 42
0.2
  3
txt
  4

  0
ENDTAB
  0
TABLE
  2
VIEW
 70
     0
  0
ENDTAB
  0
TABLE
  2
UCS
 70
     0
  0
ENDTAB
  0
TABLE
  2
APPID
 70
     4
  0
APPID
  2
ACAD
 70
     0
  0
APPID
  2
ACADANNOTATIVE
 70
     0
  0
APPID
  2
ACAD_NAV_VCDISPLAY
 70
     0
  0
APPID
  2
ACAD_MLEADERVER
 70
     0
  0
ENDTAB
  0
TABLE
  2
DIMSTYLE
 70
     3
  0
DIMSTYLE
  2
STANDARD
 70
     0
  3

  4

  5

  6

  7

 40
1.0
 41
0.18
 42
0.0625
 43
0.38
 44
0.18
 45
0.0
 46
0.0
 47
0.0
 48
0.0
140
0.18
141
0.09
142
0.0
143
25.399999999999999
144
1.0
145
0.0
146
1.0
147
0.09
 71
     0
 72
     0
 73
     1
 74
     1
 75
     0
 76
     0
 77
     0
 78
     0
170
     0
171
     2
172
     0
173
     0
174
     0
175
     0
176
     0
177
     0
178
     0
  0
DIMSTYLE
  2
ANNOTATIVE
 70
     0
  3

  4

  5

  6

  7

 40
1.0
 41
0.18
 42
0.0625
 43
0.38
 44
0.18
 45
0.0
 46
0.0
 47
0.0
 48
0.0
140
0.18
141
0.09
142
0.0
143
25.399999999999999
144
1.0
145
0.0
146
1.0
147
0.09
 71
     0
 72
     0
 73
     1
 74
     1
 75
     0
 76
     0
 77
     0
 78
     0
170
     0
171
     2
172
     0
173
     0
174
     0
175
     0
176
     0
177
     0
178
     0
  0
ENDTAB
  0
ENDSEC
  0
SECTION
  2
BLOCKS
  0
BLOCK
  8
0
  2
$MODEL_SPACE
 70
     0
 10
0.0
 20
0.0
 30
0.0
  3
$MODEL_SPACE
  1

  0
ENDBLK
  5
71
  8
0
  0
BLOCK
 67
     1
  8
0
  2
$PAPER_SPACE
 70
     0
 10
0.0
 20
0.0
 30
0.0
  3
$PAPER_SPACE
  1

  0
ENDBLK
  5
6D
 67
     1
  8
0
  0
ENDSEC
  0
SECTION
  2
ENTITIES
  0
POLYLINE
  5
83
  8
SECOND
 66
     1
 10
0.0
 20
0.0
 30
0.0
  0
VERTEX
  5
26B
  8
SECOND
 10
78.289001464843793
 20
94.355400085449205
 30
0.0
  0
VERTEX
  5
26C
  8
SECOND
 10
77.200798034667983
 20
92.285003662109418
 30
0.0
  0
VERTEX
  5
26D
  8
SECOND
 10
76.158096313476591
 20
91.653900146484418
 30
0.0
  0
VERTEX
  5
26E
  8
SECOND
 10
73.801696777343793
 20
91.639602661132798
 30
0.0
  0
VERTEX
  5
26F
  8
SECOND
 10
71.845298767089801
 20
91.627700805664105
 30
0.0
  0
VERTEX
  5
270
  8
SECOND
 10
69.107002258300795
 20
93.488403320312486
 30
0.0
  0
VERTEX
  5
271
  8
SECOND
 10
69.107002258300795
 20
93.488403320312486
 30
0.0
  0
VERTEX
  5
272
  8
SECOND
 10
66.368598937988295
 20
95.34919738769527
 30
0.0
  0
VERTEX
  5
273
  8
SECOND
 10
63.875999450683601
 20
100.104301452637
 30
0.0
  0
VERTEX
  5
274
  8
SECOND
 10
61.383499145507791
 20
104.859497070313
 30
0.0
  0
VERTEX
  5
275
  8
SECOND
 10
61.383499145507791
 20
112.92359924316401
 30
0.0
  0
VERTEX
  5
276
  8
SECOND
 10
61.383499145507791
 20
120.987602233887
 30
0.0
  0
VERTEX
  5
277
  8
SECOND
 10
62.743198394775398
 20
121.51670074462901
 30
0.0
  0
VERTEX
  5
278
  8
SECOND
 10
64.102996826171889
 20
122.04579925537099
 30
0.0
  0
VERTEX
  5
279
  8
SECOND
 10
66.698997497558594
 20
119.074600219727
 30
0.0
  0
VERTEX
  5
27A
  8
SECOND
 10
68.126800537109389
 20
117.440399169922
 30
0.0
  0
VERTEX
  5
27B
  8
SECOND
 10
71.156600952148409
 20
113.46990203857401
 30
0.0
  0
VERTEX
  5
27C
  8
SECOND
 10
73.431800842285199
 20
110.25119781494099
 30
0.0
  0
VERTEX
  5
27D
  8
SECOND
 10
77.568496704101591
 20
104.39910125732401
 30
0.0
  0
VERTEX
  5
27E
  8
SECOND
 10
78.339302062988295
 20
100.15830230712901
 30
0.0
  0
VERTEX
  5
27F
  8
SECOND
 10
79.110099792480483
 20
95.917602539062486
 30
0.0
  0
VERTEX
  5
280
  8
SECOND
 10
78.289001464843793
 20
94.355400085449205
 30
0.0
  0
SEQEND
  5
281
  8
SECOND
  0
POLYLINE
  5
9B
  8
SECOND
 66
     1
 10
0.0
 20
0.0
 30
0.0
  0
VERTEX
  5
282
  8
SECOND
 10
96.393997192382798
 20
81.482200622558594
 30
0.0
  0
VERTEX
  5
283
  8
SECOND
 10
95.2738037109375
 20
82.191001892089801
 30
0.0
  0
VERTEX
  5
284
  8
SECOND
 10
98.197502136230526
 20
88.657600402831974
 30
0.0
  0
VERTEX
  5
285
  8
SECOND
 10
99.805603027343807
 20
92.214202880859418
 30
0.0
  0
VERTEX
  5
286
  8
SECOND
 10
102.900100708008
 20
98.742996215820298
 30
0.0
  0
VERTEX
  5
287
  8
SECOND
 10
105.074096679688
 20
103.165901184082
 30
0.0
  0
VERTEX
  5
288
  8
SECOND
 10
109.026901245117
 20
111.20760345459
 30
0.0
  0
VERTEX
  5
289
  8
SECOND
 10
108.892303466797
 20
114.767097473145
 30
0.0
  0
VERTEX
  5
28A
  8
SECOND
 10
108.757598876953
 20
118.32659912109401
 30
0.0
  0
VERTEX
  5
28B
  8
SECOND
 10
107.60369873046901
 20
122.21230316162099
 30
0.0
  0
VERTEX
  5
28C
  8
SECOND
 10
106.96900177002
 20
124.349403381348
 30
0.0
  0
VERTEX
  5
28D
  8
SECOND
 10
106.44979858398401
 20
126.33570098877
 30
0.0
  0
VERTEX
  5
28E
  8
SECOND
 10
106.44979858398401
 20
126.62619781494099
 30
0.0
  0
VERTEX
  5
28F
  8
SECOND
 10
106.44979858398401
 20
127.154502868652
 30
0.0
  0
VERTEX
  5
290
  8
SECOND
 10
108.368202209473
 20
126.78769683837901
 30
0.0
  0
VERTEX
  5
291
  8
SECOND
 10
109.423301696777
 20
126.58599853515599
 30
0.0
  0
VERTEX
  5
292
  8
SECOND
 10
113.669799804688
 20
124.62400054931599
 30
0.0
  0
VERTEX
  5
293
  8
SECOND
 10
117.804801940918
 20
122.427696228027
 30
0.0
  0
VERTEX
  5
294
  8
SECOND
 10
125.32289886474599
 20
118.43440246582
 30
0.0
  0
VERTEX
  5
295
  8
SECOND
 10
127.5166015625
 20
115.32640075683599
 30
0.0
  0
VERTEX
  5
296
  8
SECOND
 10
129.71029663085901
 20
112.218299865723
 30
0.0
  0
VERTEX
  5
297
  8
SECOND
 10
130.150802612305
 20
109.110298156738
 30
0.0
  0
VERTEX
  5
298
  8
SECOND
 10
130.59120178222699
 20
106.00229644775401
 30
0.0
  0
VERTEX
  5
299
  8
SECOND
 10
129.83250427246099
 20
104.86440277099599
 30
0.0
  0
VERTEX
  5
29A
  8
SECOND
 10
129.073806762695
 20
103.726600646973
 30
0.0
  0
VERTEX
  5
29B
  8
SECOND
 10
127.04270172119099
 20
103.637702941895
 30
0.0
  0
VERTEX
  5
29C
  8
SECOND
 10
125.01149749755901
 20
103.548797607422
 30
0.0
  0
VERTEX
  5
29D
  8
SECOND
 10
115.92489624023401
 20
95.428802490234418
 30
0.0
  0
VERTEX
  5
29E
  8
SECOND
 10
104.109298706055
 20
84.870101928710909
 30
0.0
  0
VERTEX
  5
29F
  8
SECOND
 10
99.138000488281293
 20
80.746803283691406
 30
0.0
  0
VERTEX
  5
2A0
  8
SECOND
 10
98.241203308105511
 20
80.761497497558594
 30
0.0
  0
VERTEX
  5
2A1
  8
SECOND
 10
97.841400146484432
 20
80.767700195312514
 30
0.0
  0
VERTEX
  5
2A2
  8
SECOND
 10
97.010101318359432
 20
81.092399597167997
 30
0.0
  0
VERTEX
  5
2A3
  8
SECOND
 10
96.393997192382798
 20
81.482200622558594
 30
0.0
  0
VERTEX
  5
2A4
  8
SECOND
 10
96.393997192382798
 20
81.482200622558594
 30
0.0
  0
SEQEND
  5
2A5
  8
SECOND
  0
POLYLINE
  5
C0
  8
FIRST
 66
     1
 10
0.0
 20
0.0
 30
0.0
  0
VERTEX
  5
2A6
  8
FIRST
 10
28.13330078125
 20
8.2009000778198207
 30
0.0
  0
VERTEX
  5
2A7
  8
FIRST
 10
28.6856994628906
 20
7.2094001770019496
 30
0.0
  0
VERTEX
  5
2A8
  8
FIRST
 10
30.186700820922901
 20
4.9584999084472701
 30
0.0
  0
VERTEX
  5
2A9
  8
FIRST
 10
31.468700408935501
 20
3.1991000175476079
 30
0.0
  0
VERTEX
  5
2AA
  8
FIRST
 10
31.468700408935501
 20
3.1991000175476079
 30
0.0
  0
VERTEX
  5
2AB
  8
FIRST
 10
33.7997016906738
 20
0.0
 30
0.0
  0
VERTEX
  5
2AC
  8
FIRST
 10
35.198101043701207
 20
-0.0294000003486872
 30
0.0
  0
VERTEX
  5
2AD
  8
FIRST
 10
35.967201232910213
 20
-0.0456999987363815
 30
0.0
  0
VERTEX
  5
2AE
  8
FIRST
 10
37.622100830078097
 20
0.4715000092983252
 30
0.0
  0
VERTEX
  5
2AF
  8
FIRST
 10
38.875701904296903
 20
1.11969995498657
 30
0.0
  0
VERTEX
  5
2B0
  8
FIRST
 10
41.154998779296882
 20
2.29839992523193
 30
0.0
  0
VERTEX
  5
2B1
  8
FIRST
 10
42.333599090576207
 20
4.5777001380920401
 30
0.0
  0
VERTEX
  5
2B2
  8
FIRST
 10
43.512298583984389
 20
6.8569002151489276
 30
0.0
  0
VERTEX
  5
2B3
  8
FIRST
 10
43.512298583984389
 20
15.3170003890991
 30
0.0
  0
VERTEX
  5
2B4
  8
FIRST
 10
43.512298583984389
 20
19.970100402831999
 30
0.0
  0
VERTEX
  5
2B5
  8
FIRST
 10
43.74169921875
 20
31.6585998535156
 30
0.0
  0
VERTEX
  5
2B6
  8
FIRST
 10
44.021999359130881
 20
41.291599273681598
 30
0.0
  0
VERTEX
  5
2B7
  8
FIRST
 10
44.531799316406293
 20
58.806098937988303
 30
0.0
  0
VERTEX
  5
2B8
  8
FIRST
 10
47.430999755859389
 20
56.763099670410213
 30
0.0
  0
VERTEX
  5
2B9
  8
FIRST
 10
50.3302001953125
 20
54.720001220703097
 30
0.0
  0
VERTEX
  5
2BA
  8
FIRST
 10
48.544898986816399
 20
53.760398864746101
 30
0.0
  0
VERTEX
  5
2BB
  8
FIRST
 10
46.759700775146513
 20
52.8008003234863
 30
0.0
  0
VERTEX
  5
2BC
  8
FIRST
 10
47.130798339843778
 20
51.381599426269503
 30
0.0
  0
VERTEX
  5
2BD
  8
FIRST
 10
47.501998901367209
 20
49.962398529052699
 30
0.0
  0
VERTEX
  5
2BE
  8
FIRST
 10
52.744400024414091
 20
46.727401733398402
 30
0.0
  0
VERTEX
  5
2BF
  8
FIRST
 10
57.986900329589801
 20
43.492401123046889
 30
0.0
  0
VERTEX
  5
2C0
  8
FIRST
 10
62.106300354003899
 20
43.980300903320291
 30
0.0
  0
VERTEX
  5
2C1
  8
FIRST
 10
66.225700378417997
 20
44.4682006835938
 30
0.0
  0
VERTEX
  5
2C2
  8
FIRST
 10
65.706802368164105
 20
42.833499908447301
 30
0.0
  0
VERTEX
  5
2C3
  8
FIRST
 10
65.188003540039105
 20
41.198799133300803
 30
0.0
  0
VERTEX
  5
2C4
  8
FIRST
 10
66.025802612304702
 20
38.087501525878899
 30
0.0
  0
VERTEX
  5
2C5
  8
FIRST
 10
66.863502502441392
 20
34.9762992858887
 30
0.0
  0
VERTEX
  5
2C6
  8
FIRST
 10
68.064002990722699
 20
33.775798797607401
 30
0.0
  0
VERTEX
  5
2C7
  8
FIRST
 10
69.264503479003892
 20
32.5752983093262
 30
0.0
  0
VERTEX
  5
2C8
  8
FIRST
 10
71.431602478027301
 20
32.5752983093262
 30
0.0
  0
VERTEX
  5
2C9
  8
FIRST
 10
73.598701477050795
 20
32.5752983093262
 30
0.0
  0
VERTEX
  5
2CA
  8
FIRST
 10
76.232398986816406
 20
30.798799514770501
 30
0.0
  0
VERTEX
  5
2CB
  8
FIRST
 10
77.680900573730497
 20
29.821800231933612
 30
0.0
  0
VERTEX
  5
2CC
  8
FIRST
 10
80.013496398925795
 20
28.551000595092798
 30
0.0
  0
VERTEX
  5
2CD
  8
FIRST
 10
81.415802001953097
 20
27.974899291992202
 30
0.0
  0
VERTEX
  5
2CE
  8
FIRST
 10
83.965599060058594
 20
26.9274005889893
 30
0.0
  0
VERTEX
  5
2CF
  8
FIRST
 10
79.472099304199205
 20
23.494400024414102
 30
0.0
  0
VERTEX
  5
2D0
  8
FIRST
 10
74.978599548339801
 20
20.06130027771
 30
0.0
  0
VERTEX
  5
2D1
  8
FIRST
 10
63.010700225830099
 20
15.0980997085571
 30
0.0
  0
VERTEX
  5
2D2
  8
FIRST
 10
51.042800903320291
 20
10.1347999572754
 30
0.0
  0
VERTEX
  5
2D3
  8
FIRST
 10
50.397499084472699
 20
9.1171998977661062
 30
0.0
  0
VERTEX
  5
2D4
  8
FIRST
 10
50.042598724365199
 20
8.5574998855590803
 30
0.0
  0
VERTEX
  5
2D5
  8
FIRST
 10
49.746498107910213
 20
7.8373999595642081
 30
0.0
  0
VERTEX
  5
2D6
  8
FIRST
 10
49.740299224853501
 20
7.5169000625610378
 30
0.0
  0
VERTEX
  5
2D7
  8
FIRST
 10
49.728401184082003
 20
6.9341001510620091
 30
0.0
  0
VERTEX
  5
2D8
  8
FIRST
 10
61.966201782226591
 20
6.9425001144409197
 30
0.0
  0
VERTEX
  5
2D9
  8
FIRST
 10
74.204002380371094
 20
6.9509000778198198
 30
0.0
  0
VERTEX
  5
2DA
  8
FIRST
 10
77.844001770019503
 20
8.0557003021240181
 30
0.0
  0
VERTEX
  5
2DB
  8
FIRST
 10
79.845901489257798
 20
8.6632003784179705
 30
0.0
  0
VERTEX
  5
2DC
  8
FIRST
 10
82.818000793457003
 20
9.8514003753662092
 30
0.0
  0
VERTEX
  5
2DD
  8
FIRST
 10
84.448501586914091
 20
10.696200370788601
 30
0.0
  0
VERTEX
  5
2DE
  8
FIRST
 10
86.0791015625
 20
11.540900230407701
 30
0.0
  0
VERTEX
  5
2DF
  8
FIRST
 10
88.462097167968793
 20
12.6957998275757
 30
0.0
  0
VERTEX
  5
2E0
  8
FIRST
 10
89.744201660156293
 20
13.2627000808716
 30
0.0
  0
VERTEX
  5
2E1
  8
FIRST
 10
92.39689636230473
 20
14.435700416564901
 30
0.0
  0
VERTEX
  5
2E2
  8
FIRST
 10
96.492500305175795
 20
17.0865993499756
 30
0.0
  0
VERTEX
  5
2E3
  8
FIRST
 10
97.237098693847685
 20
18.1126003265381
 30
0.0
  0
VERTEX
  5
2E4
  8
FIRST
 10
97.736999511718793
 20
18.801399230956999
 30
0.0
  0
VERTEX
  5
2E5
  8
FIRST
 10
104.618698120117
 20
13.889599800109901
 30
0.0
  0
VERTEX
  5
2E6
  8
FIRST
 10
108.403602600098
 20
11.188099861145
 30
0.0
  0
VERTEX
  5
2E7
  8
FIRST
 10
113.328903198242
 20
7.63789987564087
 30
0.0
  0
VERTEX
  5
2E8
  8
FIRST
 10
115.56379699707
 20
6.000299930572508
 30
0.0
  0
VERTEX
  5
2E9
  8
FIRST
 10
117.79859924316401
 20
4.3625998497009304
 30
0.0
  0
VERTEX
  5
2EA
  8
FIRST
 10
120.551597595215
 20
2.6712999343872101
 30
0.0
  0
VERTEX
  5
2EB
  8
FIRST
 10
121.681396484375
 20
2.2418000698089591
 30
0.0
  0
VERTEX
  5
2EC
  8
FIRST
 10
123.735702514648
 20
1.46070003509521
 30
0.0
  0
VERTEX
  5
2ED
  8
FIRST
 10
126.42130279541
 20
1.96459996700287
 30
0.0
  0
VERTEX
  5
2EE
  8
FIRST
 10
129.10699462890599
 20
2.468400001525878
 30
0.0
  0
VERTEX
  5
2EF
  8
FIRST
 10
129.548904418945
 20
3.619899988174438
 30
0.0
  0
VERTEX
  5
2F0
  8
FIRST
 10
129.99070739746099
 20
4.771399974822998
 30
0.0
  0
VERTEX
  5
2F1
  8
FIRST
 10
128.63429260253901
 20
9.0745000839233398
 30
0.0
  0
VERTEX
  5
2F2
  8
FIRST
 10
127.101402282715
 20
13.9373998641968
 30
0.0
  0
VERTEX
  5
2F3
  8
FIRST
 10
127.05979919433599
 20
14.000399589538601
 30
0.0
  0
VERTEX
  5
2F4
  8
FIRST
 10
121.212898254395
 20
20.2984008789063
 30
0.0
  0
VERTEX
  5
2F5
  8
FIRST
 10
116.939399719238
 20
24.9015998840332
 30
0.0
  0
VERTEX
  5
2F6
  8
FIRST
 10
112.359001159668
 20
27.934299468994102
 30
0.0
  0
VERTEX
  5
2F7
  8
FIRST
 10
109.83969879150401
 20
29.602300643920898
 30
0.0
  0
VERTEX
  5
2F8
  8
FIRST
 10
107.474800109863
 20
31.068199157714801
 30
0.0
  0
VERTEX
  5
2F9
  8
FIRST
 10
107.103401184082
 20
31.191999435424801
 30
0.0
  0
VERTEX
  5
2FA
  8
FIRST
 10
106.428298950195
 20
31.417100906372099
 30
0.0
  0
VERTEX
  5
2FB
  8
FIRST
 10
110.16089630127
 20
39.960498809814503
 30
0.0
  0
VERTEX
  5
2FC
  8
FIRST
 10
113.893501281738
 20
48.504001617431598
 30
0.0
  0
VERTEX
  5
2FD
  8
FIRST
 10
125.282997131348
 20
48.718799591064503
 30
0.0
  0
VERTEX
  5
2FE
  8
FIRST
 10
136.67250061035199
 20
48.933601379394503
 30
0.0
  0
VERTEX
  5
2FF
  8
FIRST
 10
138.31069946289099
 20
51.016201019287102
 30
0.0
  0
VERTEX
  5
300
  8
FIRST
 10
139.94889831543
 20
53.098800659179709
 30
0.0
  0
VERTEX
  5
301
  8
FIRST
 10
139.478103637695
 20
54.974601745605497
 30
0.0
  0
VERTEX
  5
302
  8
FIRST
 10
138.79969787597699
 20
57.677501678466797
 30
0.0
  0
VERTEX
  5
303
  8
FIRST
 10
137.36979675293
 20
58.842498779296903
 30
0.0
  0
VERTEX
  5
304
  8
FIRST
 10
131.89849853515599
 20
61.149501800537102
 30
0.0
  0
VERTEX
  5
305
  8
FIRST
 10
127.040397644043
 20
63.198001861572287
 30
0.0
  0
VERTEX
  5
306
  8
FIRST
 10
121.52439880371099
 20
63.2018013000488
 30
0.0
  0
VERTEX
  5
307
  8
FIRST
 10
116.00839996337901
 20
63.20569992065429
 30
0.0
  0
VERTEX
  5
308
  8
FIRST
 10
115.057899475098
 20
65.352996826171889
 30
0.0
  0
VERTEX
  5
309
  8
FIRST
 10
114.10739898681599
 20
67.500297546386705
 30
0.0
  0
VERTEX
  5
30A
  8
FIRST
 10
107.783699035645
 20
70.665496826171903
 30
0.0
  0
VERTEX
  5
30B
  8
FIRST
 10
101.45989990234401
 20
73.830596923828097
 30
0.0
  0
VERTEX
  5
30C
  8
FIRST
 10
99.38420104980473
 20
73.599296569824205
 30
0.0
  0
VERTEX
  5
30D
  8
FIRST
 10
97.308502197265582
 20
73.368103027343793
 30
0.0
  0
VERTEX
  5
30E
  8
FIRST
 10
98.8031005859375
 20
67.637298583984389
 30
0.0
  0
VERTEX
  5
30F
  8
FIRST
 10
99.625099182128935
 20
64.485298156738295
 30
0.0
  0
VERTEX
  5
310
  8
FIRST
 10
100.158203125
 20
61.766998291015597
 30
0.0
  0
VERTEX
  5
311
  8
FIRST
 10
99.987800598144503
 20
61.596500396728487
 30
0.0
  0
VERTEX
  5
312
  8
FIRST
 10
99.817398071289105
 20
61.426101684570291
 30
0.0
  0
VERTEX
  5
313
  8
FIRST
 10
97.355400085449205
 20
61.069801330566399
 30
0.0
  0
VERTEX
  5
314
  8
FIRST
 10
94.516799926757798
 20
60.804698944091797
 30
0.0
  0
VERTEX
  5
315
  8
FIRST
 10
89.355697631835895
 20
60.322799682617209
 30
0.0
  0
VERTEX
  5
316
  8
FIRST
 10
89.355697631835895
 20
60.926200866699197
 30
0.0
  0
VERTEX
  5
317
  8
FIRST
 10
89.355697631835895
 20
61.257999420165987
 30
0.0
  0
VERTEX
  5
318
  8
FIRST
 10
90.060501098632784
 20
62.669998168945291
 30
0.0
  0
VERTEX
  5
319
  8
FIRST
 10
90.9219970703125
 20
64.063903808593793
 30
0.0
  0
VERTEX
  5
31A
  8
FIRST
 10
91.783401489257798
 20
65.457801818847699
 30
0.0
  0
VERTEX
  5
31B
  8
FIRST
 10
92.992103576660185
 20
68.272300720214801
 30
0.0
  0
VERTEX
  5
31C
  8
FIRST
 10
93.607902526855526
 20
70.318397521972699
 30
0.0
  0
VERTEX
  5
31D
  8
FIRST
 10
94.727500915527315
 20
74.038497924804702
 30
0.0
  0
VERTEX
  5
31E
  8
FIRST
 10
91.847297668456974
 20
76.561897277832003
 30
0.0
  0
VERTEX
  5
31F
  8
FIRST
 10
88.967201232910199
 20
79.085296630859403
 30
0.0
  0
VERTEX
  5
320
  8
FIRST
 10
84.461601257324205
 20
80.750000000000014
 30
0.0
  0
VERTEX
  5
321
  8
FIRST
 10
79.956100463867202
 20
82.414596557617216
 30
0.0
  0
VERTEX
  5
322
  8
FIRST
 10
75.606201171875
 20
82.414596557617216
 30
0.0
  0
VERTEX
  5
323
  8
FIRST
 10
71.256301879882798
 20
82.414596557617216
 30
0.0
  0
VERTEX
  5
324
  8
FIRST
 10
70.722099304199205
 20
81.550201416015597
 30
0.0
  0
VERTEX
  5
325
  8
FIRST
 10
70.187896728515611
 20
80.685798645019503
 30
0.0
  0
VERTEX
  5
326
  8
FIRST
 10
72.1051025390625
 20
76.679801940917997
 30
0.0
  0
VERTEX
  5
327
  8
FIRST
 10
74.022300720214801
 20
72.673797607421903
 30
0.0
  0
VERTEX
  5
328
  8
FIRST
 10
73.540000915527301
 20
66.804901123046875
 30
0.0
  0
VERTEX
  5
329
  8
FIRST
 10
73.274803161621094
 20
63.576999664306612
 30
0.0
  0
VERTEX
  5
32A
  8
FIRST
 10
72.837799072265597
 20
60.149299621582003
 30
0.0
  0
VERTEX
  5
32B
  8
FIRST
 10
72.569000244140597
 20
59.187698364257791
 30
0.0
  0
VERTEX
  5
32C
  8
FIRST
 10
72.080299377441406
 20
57.439498901367209
 30
0.0
  0
VERTEX
  5
32D
  8
FIRST
 10
69.908203125
 20
57.439498901367209
 30
0.0
  0
VERTEX
  5
32E
  8
FIRST
 10
68.713600158691392
 20
57.439498901367209
 30
0.0
  0
VERTEX
  5
32F
  8
FIRST
 10
65.019996643066392
 20
56.919700622558601
 30
0.0
  0
VERTEX
  5
330
  8
FIRST
 10
61.700199127197287
 20
56.284599304199197
 30
0.0
  0
VERTEX
  5
331
  8
FIRST
 10
58.380401611328097
 20
55.649398803710902
 30
0.0
  0
VERTEX
  5
332
  8
FIRST
 10
55.524101257324197
 20
55.269798278808601
 30
0.0
  0
VERTEX
  5
333
  8
FIRST
 10
55.352798461914098
 20
55.441001892089787
 30
0.0
  0
VERTEX
  5
334
  8
FIRST
 10
55.181598663330099
 20
55.6122016906738
 30
0.0
  0
VERTEX
  5
335
  8
FIRST
 10
55.387001037597699
 20
56.39789962768549
 30
0.0
  0
VERTEX
  5
336
  8
FIRST
 10
55.809299468994098
 20
57.186901092529283
 30
0.0
  0
VERTEX
  5
337
  8
FIRST
 10
56.576999664306598
 20
58.621498107910199
 30
0.0
  0
VERTEX
  5
338
  8
FIRST
 10
56.187301635742209
 20
60.659999847412102
 30
0.0
  0
VERTEX
  5
339
  8
FIRST
 10
55.797698974609389
 20
62.698501586914098
 30
0.0
  0
VERTEX
  5
33A
  8
FIRST
 10
49.680900573730497
 20
69.296699523925795
 30
0.0
  0
VERTEX
  5
33B
  8
FIRST
 10
43.564201354980497
 20
75.8948974609375
 30
0.0
  0
VERTEX
  5
33C
  8
FIRST
 10
47.229000091552699
 20
76.360702514648409
 30
0.0
  0
VERTEX
  5
33D
  8
FIRST
 10
49.244701385497997
 20
76.616996765136705
 30
0.0
  0
VERTEX
  5
33E
  8
FIRST
 10
53.066799163818381
 20
77.272201538085909
 30
0.0
  0
VERTEX
  5
33F
  8
FIRST
 10
55.722599029540987
 20
77.816902160644503
 30
0.0
  0
VERTEX
  5
340
  8
FIRST
 10
60.551399230957003
 20
78.807098388671903
 30
0.0
  0
VERTEX
  5
341
  8
FIRST
 10
61.841499328613303
 20
80.097503662109403
 30
0.0
  0
VERTEX
  5
342
  8
FIRST
 10
63.131698608398402
 20
81.387901306152301
 30
0.0
  0
VERTEX
  5
343
  8
FIRST
 10
61.674800872802713
 20
84.371002197265597
 30
0.0
  0
VERTEX
  5
344
  8
FIRST
 10
60.21789932250978
 20
87.354202270507784
 30
0.0
  0
VERTEX
  5
345
  8
FIRST
 10
56.750999450683601
 20
89.102401733398395
 30
0.0
  0
VERTEX
  5
346
  8
FIRST
 10
53.284099578857401
 20
90.850700378417997
 30
0.0
  0
VERTEX
  5
347
  8
FIRST
 10
50.224300384521499
 20
90.850700378417997
 30
0.0
  0
VERTEX
  5
348
  8
FIRST
 10
47.164501190185483
 20
90.850700378417997
 30
0.0
  0
VERTEX
  5
349
  8
FIRST
 10
47.635398864746087
 20
99.203498840332003
 30
0.0
  0
VERTEX
  5
34A
  8
FIRST
 10
48.106201171875
 20
107.55629730224599
 30
0.0
  0
VERTEX
  5
34B
  8
FIRST
 10
48.913700103759787
 20
110.258003234863
 30
0.0
  0
VERTEX
  5
34C
  8
FIRST
 10
49.721099853515597
 20
112.95970153808599
 30
0.0
  0
VERTEX
  5
34D
  8
FIRST
 10
49.321601867675803
 20
114.143096923828
 30
0.0
  0
VERTEX
  5
34E
  8
FIRST
 10
48.92200088500978
 20
115.32640075683599
 30
0.0
  0
VERTEX
  5
34F
  8
FIRST
 10
45.088100433349602
 20
117.92299652099599
 30
0.0
  0
VERTEX
  5
350
  8
FIRST
 10
42.979400634765597
 20
119.351196289063
 30
0.0
  0
VERTEX
  5
351
  8
FIRST
 10
40.276199340820298
 20
121.42880249023401
 30
0.0
  0
VERTEX
  5
352
  8
FIRST
 10
39.081001281738303
 20
122.540000915527
 30
0.0
  0
VERTEX
  5
353
  8
FIRST
 10
36.907798767089801
 20
124.56040191650401
 30
0.0
  0
VERTEX
  5
354
  8
FIRST
 10
33.411201477050803
 20
125.141799926758
 30
0.0
  0
VERTEX
  5
355
  8
FIRST
 10
31.4881992340088
 20
125.461700439453
 30
0.0
  0
VERTEX
  5
356
  8
FIRST
 10
28.6408996582031
 20
125.74420166015599
 30
0.0
  0
VERTEX
  5
357
  8
FIRST
 10
27.084100723266602
 20
125.76959991455099
 30
0.0
  0
VERTEX
  5
358
  8
FIRST
 10
24.253400802612301
 20
125.81590270996099
 30
0.0
  0
VERTEX
  5
359
  8
FIRST
 10
23.850599288940401
 20
124.76609802246099
 30
0.0
  0
VERTEX
  5
35A
  8
FIRST
 10
23.447700500488299
 20
123.716201782227
 30
0.0
  0
VERTEX
  5
35B
  8
FIRST
 10
26.453300476074201
 20
119.13279724121099
 30
0.0
  0
VERTEX
  5
35C
  8
FIRST
 10
29.458999633789102
 20
114.54940032959
 30
0.0
  0
VERTEX
  5
35D
  8
FIRST
 10
30.301700592041001
 20
101.04859924316401
 30
0.0
  0
VERTEX
  5
35E
  8
FIRST
 10
30.765199661254901
 20
93.623199462890582
 30
0.0
  0
VERTEX
  5
35F
  8
FIRST
 10
31.042600631713899
 20
87.490699768066406
 30
0.0
  0
VERTEX
  5
360
  8
FIRST
 10
30.9181003570557
 20
87.420799255371094
 30
0.0
  0
VERTEX
  5
361
  8
FIRST
 10
30.7936000823975
 20
87.350997924804702
 30
0.0
  0
VERTEX
  5
362
  8
FIRST
 10
25.210399627685501
 20
85.9656982421875
 30
0.0
  0
VERTEX
  5
363
  8
FIRST
 10
18.510999679565401
 20
84.342399597167997
 30
0.0
  0
VERTEX
  5
364
  8
FIRST
 10
6.3302001953125
 20
81.390899658203097
 30
0.0
  0
VERTEX
  5
365
  8
FIRST
 10
5.9230999946594203
 20
80.330001831054687
 30
0.0
  0
VERTEX
  5
366
  8
FIRST
 10
5.5159997940063503
 20
79.268997192382798
 30
0.0
  0
VERTEX
  5
367
  8
FIRST
 10
7.8459000587463397
 20
77.308502197265597
 30
0.0
  0
VERTEX
  5
368
  8
FIRST
 10
9.1273002624511701
 20
76.230201721191406
 30
0.0
  0
VERTEX
  5
369
  8
FIRST
 10
11.4701995849609
 20
74.785697937011705
 30
0.0
  0
VERTEX
  5
36A
  8
FIRST
 10
13.0522003173828
 20
74.098503112792983
 30
0.0
  0
VERTEX
  5
36B
  8
FIRST
 10
14.6342000961304
 20
73.411201477050795
 30
0.0
  0
VERTEX
  5
36C
  8
FIRST
 10
16.4533996582031
 20
72.580101013183594
 30
0.0
  0
VERTEX
  5
36D
  8
FIRST
 10
17.094800949096701
 20
72.251502990722699
 30
0.0
  0
VERTEX
  5
36E
  8
FIRST
 10
18.261100769043001
 20
71.654098510742202
 30
0.0
  0
VERTEX
  5
36F
  8
FIRST
 10
22.889299392700199
 20
72.037902832031293
 30
0.0
  0
VERTEX
  5
370
  8
FIRST
 10
27.517499923706101
 20
72.421699523925795
 30
0.0
  0
VERTEX
  5
371
  8
FIRST
 10
26.324399948120099
 20
70.563903808593793
 30
0.0
  0
VERTEX
  5
372
  8
FIRST
 10
25.668199539184599
 20
69.542098999023395
 30
0.0
  0
VERTEX
  5
373
  8
FIRST
 10
21.3360996246338
 20
62.829601287841783
 30
0.0
  0
VERTEX
  5
374
  8
FIRST
 10
16.6975002288818
 20
55.647201538085902
 30
0.0
  0
VERTEX
  5
375
  8
FIRST
 10
8.2636003494262678
 20
42.588401794433587
 30
0.0
  0
VERTEX
  5
376
  8
FIRST
 10
5.880099773406978
 20
40.487998962402287
 30
0.0
  0
VERTEX
  5
377
  8
FIRST
 10
3.086800098419189
 20
38.026401519775398
 30
0.0
  0
VERTEX
  5
378
  8
FIRST
 10
0.0
 20
34.21540069580081
 30
0.0
  0
VERTEX
  5
379
  8
FIRST
 10
0.0
 20
33.228199005127003
 30
0.0
  0
VERTEX
  5
37A
  8
FIRST
 10
0.0
 20
32.536800384521499
 30
0.0
  0
VERTEX
  5
37B
  8
FIRST
 10
2.08430004119873
 20
31.744300842285199
 30
0.0
  0
VERTEX
  5
37C
  8
FIRST
 10
4.16860008239746
 20
30.951900482177699
 30
0.0
  0
VERTEX
  5
37D
  8
FIRST
 10
8.1061000823974592
 20
32.637001037597699
 30
0.0
  0
VERTEX
  5
37E
  8
FIRST
 10
18.973699569702099
 20
37.287799835205099
 30
0.0
  0
VERTEX
  5
37F
  8
FIRST
 10
21.2047004699707
 20
38.6015014648438
 30
0.0
  0
VERTEX
  5
380
  8
FIRST
 10
26.206699371337901
 20
43.295101165771499
 30
0.0
  0
VERTEX
  5
381
  8
FIRST
 10
27.707899093627901
 20
44.703800201415987
 30
0.0
  0
VERTEX
  5
382
  8
FIRST
 10
29.068199157714801
 20
45.724300384521499
 30
0.0
  0
VERTEX
  5
383
  8
FIRST
 10
29.229600906372099
 20
45.562900543212898
 30
0.0
  0
VERTEX
  5
384
  8
FIRST
 10
29.3910007476807
 20
45.401500701904297
 30
0.0
  0
VERTEX
  5
385
  8
FIRST
 10
28.984399795532202
 20
37.334701538085902
 30
0.0
  0
VERTEX
  5
386
  8
FIRST
 10
28.326000213623001
 20
27.636499404907202
 30
0.0
  0
VERTEX
  5
387
  8
FIRST
 10
27.128900527954102
 20
10.0036001205444
 30
0.0
  0
VERTEX
  5
388
  8
FIRST
 10
28.13330078125
 20
8.2009000778198207
 30
0.0
  0
SEQEND
  5
389
  8
FIRST
  0
POLYLINE
  5
1A5
  8
FIRST
 62
     2
 66
     1
 10
0.0
 20
0.0
 30
0.0
  0
VERTEX
  5
38A
  8
FIRST
 62
     2
 10
82.045501708984403
 20
43.781799316406278
 30
0.0
  0
VERTEX
  5
38B
  8
FIRST
 62
     2
 10
82.309196472167983
 20
44.669498443603487
 30
0.0
  0
VERTEX
  5
38C
  8
FIRST
 62
     2
 10
83.107803344726577
 20
46.005401611328097
 30
0.0
  0
VERTEX
  5
38D
  8
FIRST
 62
     2
 10
83.819999694824205
 20
46.750499725341783
 30
0.0
  0
VERTEX
  5
38E
  8
FIRST
 62
     2
 10
85.115097045898395
 20
48.105098724365199
 30
0.0
  0
VERTEX
  5
38F
  8
FIRST
 62
     2
 10
91.251502990722699
 20
48.6239013671875
 30
0.0
  0
VERTEX
  5
390
  8
FIRST
 62
     2
 10
97.388000488281307
 20
49.142601013183601
 30
0.0
  0
VERTEX
  5
391
  8
FIRST
 62
     2
 10
96.778800964355511
 20
47.657699584960902
 30
0.0
  0
VERTEX
  5
392
  8
FIRST
 62
     2
 10
96.443702697753935
 20
46.840999603271499
 30
0.0
  0
VERTEX
  5
393
  8
FIRST
 62
     2
 10
95.916198730468778
 20
45.121398925781293
 30
0.0
  0
VERTEX
  5
394
  8
FIRST
 62
     2
 10
95.606498718261705
 20
43.836200714111293
 30
0.0
  0
VERTEX
  5
395
  8
FIRST
 62
     2
 10
95.296798706054702
 20
42.550998687744112
 30
0.0
  0
VERTEX
  5
396
  8
FIRST
 62
     2
 10
94.553703308105497
 20
40.715301513671889
 30
0.0
  0
VERTEX
  5
397
  8
FIRST
 62
     2
 10
93.9552001953125
 20
39.756900787353501
 30
0.0
  0
VERTEX
  5
398
  8
FIRST
 62
     2
 10
93.9552001953125
 20
39.756900787353501
 30
0.0
  0
VERTEX
  5
399
  8
FIRST
 62
     2
 10
92.866897583007784
 20
38.014301300048793
 30
0.0
  0
VERTEX
  5
39A
  8
FIRST
 62
     2
 10
91.305496215820298
 20
38.043300628662102
 30
0.0
  0
VERTEX
  5
39B
  8
FIRST
 62
     2
 10
89.744201660156293
 20
38.072200775146499
 30
0.0
  0
VERTEX
  5
39C
  8
FIRST
 62
     2
 10
85.655097961425795
 20
40.119899749755888
 30
0.0
  0
VERTEX
  5
39D
  8
FIRST
 62
     2
 10
81.566101074218793
 20
42.167701721191392
 30
0.0
  0
VERTEX
  5
39E
  8
FIRST
 62
     2
 10
82.045501708984403
 20
43.781799316406278
 30
0.0
  0
SEQEND
  5
39F
  8
FIRST
 62
     2
  0
POLYLINE
  5
1BC
  8
SECOND
 62
   100
 66
     1
 10
0.0
 20
0.0
 30
0.0
  0
VERTEX
  5
3A0
  8
SECOND
 62
   100
 10
93.795501708984418
 20
96.379898071289105
 30
0.0
  0
VERTEX
  5
3A1
  8
SECOND
 62
   100
 10
93.276702880859418
 20
96.429397583007798
 30
0.0
  0
VERTEX
  5
3A2
  8
SECOND
 62
   100
 10
92.306396484375014
 20
96.617202758789134
 30
0.0
  0
VERTEX
  5
3A3
  8
SECOND
 62
   100
 10
91.639198303222685
 20
96.797096252441406
 30
0.0
  0
VERTEX
  5
3A4
  8
SECOND
 62
   100
 10
91.639198303222685
 20
96.797096252441406
 30
0.0
  0
VERTEX
  5
3A5
  8
SECOND
 62
   100
 10
90.426200866699205
 20
97.124099731445313
 30
0.0
  0
VERTEX
  5
3A6
  8
SECOND
 62
   100
 10
87.803298950195298
 20
101.563201904297
 30
0.0
  0
VERTEX
  5
3A7
  8
SECOND
 62
   100
 10
86.360702514648395
 20
104.00469970703099
 30
0.0
  0
VERTEX
  5
3A8
  8
SECOND
 62
   100
 10
84.731399536132798
 20
106.543098449707
 30
0.0
  0
VERTEX
  5
3A9
  8
SECOND
 62
   100
 10
84.182601928710909
 20
107.2041015625
 30
0.0
  0
VERTEX
  5
3AA
  8
SECOND
 62
   100
 10
83.184700012207017
 20
108.405899047852
 30
0.0
  0
VERTEX
  5
3AB
  8
SECOND
 62
   100
 10
82.072502136230497
 20
113.808601379395
 30
0.0
  0
VERTEX
  5
3AC
  8
SECOND
 62
   100
 10
81.460800170898409
 20
116.78009796142599
 30
0.0
  0
VERTEX
  5
3AD
  8
SECOND
 62
   100
 10
80.718696594238295
 20
121.04620361328099
 30
0.0
  0
VERTEX
  5
3AE
  8
SECOND
 62
   100
 10
80.423301696777315
 20
123.28880310058599
 30
0.0
  0
VERTEX
  5
3AF
  8
SECOND
 62
   100
 10
79.886299133300795
 20
127.36630249023401
 30
0.0
  0
VERTEX
  5
3B0
  8
SECOND
 62
   100
 10
81.707199096679716
 20
128.0498046875
 30
0.0
  0
VERTEX
  5
3B1
  8
SECOND
 62
   100
 10
83.528099060058594
 20
128.7333984375
 30
0.0
  0
VERTEX
  5
3B2
  8
SECOND
 62
   100
 10
90.097099304199205
 20
122.029899597168
 30
0.0
  0
VERTEX
  5
3B3
  8
SECOND
 62
   100
 10
96.666000366210895
 20
115.32640075683599
 30
0.0
  0
VERTEX
  5
3B4
  8
SECOND
 62
   100
 10
97.661102294921903
 20
112.218299865723
 30
0.0
  0
VERTEX
  5
3B5
  8
SECOND
 62
   100
 10
98.656097412109418
 20
109.110298156738
 30
0.0
  0
VERTEX
  5
3B6
  8
SECOND
 62
   100
 10
98.667900085449205
 20
105.599899291992
 30
0.0
  0
VERTEX
  5
3B7
  8
SECOND
 62
   100
 10
98.679801940918011
 20
102.08950042724599
 30
0.0
  0
VERTEX
  5
3B8
  8
SECOND
 62
   100
 10
96.709197998046932
 20
99.189598083496094
 30
0.0
  0
VERTEX
  5
3B9
  8
SECOND
 62
   100
 10
94.738700866699205
 20
96.289703369140582
 30
0.0
  0
VERTEX
  5
3BA
  8
SECOND
 62
   100
 10
93.795501708984418
 20
96.379898071289105
 30
0.0
  0
SEQEND
  5
3BB
  8
SECOND
 62
   100
  0
ENDSEC
  0
EOF
