<?xml version="1.0" encoding="UTF-8" standalone="no"?>
<!-- Created with Inkscape (http://www.inkscape.org/) -->

<svg
   xmlns:dc="http://purl.org/dc/elements/1.1/"
   xmlns:cc="http://creativecommons.org/ns#"
   xmlns:rdf="http://www.w3.org/1999/02/22-rdf-syntax-ns#"
   xmlns:svg="http://www.w3.org/2000/svg"
   xmlns="http://www.w3.org/2000/svg"
   xmlns:sodipodi="http://sodipodi.sourceforge.net/DTD/sodipodi-0.dtd"
   xmlns:inkscape="http://www.inkscape.org/namespaces/inkscape"
   id="svg3336"
   version="1.1"
   inkscape:version="0.91 r13725"
   xml:space="preserve"
   width="214.18684"
   height="214.18684"
   viewBox="0 0 214.18683 214.18685"
   sodipodi:docname="PlanetCNC_Icon.svg"><metadata
     id="metadata3342"><rdf:RDF><cc:Work
         rdf:about=""><dc:format>image/svg+xml</dc:format><dc:type
           rdf:resource="http://purl.org/dc/dcmitype/StillImage" /><dc:title></dc:title></cc:Work></rdf:RDF></metadata><defs
     id="defs3340"><clipPath
       clipPathUnits="userSpaceOnUse"
       id="clipPath3350"><path
         d="m 0,595.28 841.89,0 L 841.89,0 0,0 0,595.28 Z"
         id="path3352"
         inkscape:connector-curvature="0" /></clipPath></defs><sodipodi:namedview
     pagecolor="#ffffff"
     bordercolor="#666666"
     borderopacity="1"
     objecttolerance="10"
     gridtolerance="10"
     guidetolerance="10"
     inkscape:pageopacity="0"
     inkscape:pageshadow="2"
     inkscape:window-width="1459"
     inkscape:window-height="880"
     id="namedview3338"
     showgrid="false"
     fit-margin-top="0"
     fit-margin-left="0"
     fit-margin-right="0"
     fit-margin-bottom="0"
     inkscape:zoom="2.5371819"
     inkscape:cx="61.649756"
     inkscape:cy="103.6769"
     inkscape:window-x="0"
     inkscape:window-y="0"
     inkscape:window-maximized="1"
     inkscape:current-layer="g3344" /><g
     id="g3344"
     inkscape:groupmode="layer"
     inkscape:label="PlanetCNC_logotip_koncnaverzija2"
     transform="matrix(1.25,0,0,-1.25,-224.13708,515.80056)"><g
       id="g3390"
       transform="translate(350.3218,355.79289)"><path
         d="m 0,0 c -0.806,-2.042 -1.926,-4.137 -3.389,-5.948 -5.758,-7.136 -13.285,-12.763 -21.01,-18.061 -15.305,-10.494 -31.625,-19.35 -48.496,-27.171 -1.49,-0.692 -2.982,-1.375 -4.475,-2.053 -0.002,0 -0.002,-0.001 -0.003,-0.001 -0.007,-0.004 -0.015,-0.008 -0.023,-0.011 -1.5,-0.66 -3.006,-1.314 -4.514,-1.963 -17.082,-7.35 -34.56,-13.594 -52.569,-17.987 -9.092,-2.218 -18.298,-4.063 -27.434,-3.584 -2.318,0.12 -4.619,0.688 -6.672,1.45 -2.273,0.849 -3.032,2.772 -1.925,4.947 1.193,2.333 3.065,4.754 4.857,6.82 5.187,5.979 11.299,10.693 18.164,15.236 -1.682,-2.34 -3.553,-4.616 -5.008,-7.032 -2.774,-4.614 -1.13,-8.55 4.179,-9.869 6.387,-1.582 13.172,-0.679 19.933,0.736 16.896,3.542 33.058,9.242 48.762,16.213 l -10e-4,10e-4 c 15.694,7.053 30.75,15.303 44.7,25.548 5.574,4.093 10.781,8.548 13.882,14.373 2.578,4.842 0.764,8.701 -4.51,9.719 -2.764,0.532 -5.7,0.659 -8.556,0.97 7.957,2.082 15.538,3.485 23.434,3.352 2.73,-0.045 5.775,-0.27 8.301,-0.942 C -0.023,4.116 0.895,2.262 0,0 m -74.308,-37.614 c -3.078,-4.55 -8.288,-7.537 -14.195,-7.525 -3.269,0.009 -6.322,0.933 -8.916,2.533 -5.064,2.959 -8.457,8.375 -8.444,14.563 0.01,5.55 2.772,10.479 7.017,13.553 2.888,2.212 6.497,3.526 10.413,3.517 6.521,-0.013 12.18,-3.679 15.047,-9.057 1.338,-2.406 2.096,-5.159 2.091,-8.084 -0.007,-3.525 -1.119,-6.796 -3.013,-9.5 m 30.518,6.544 -0.011,1.717 c 0.025,0.964 0.019,1.93 -0.018,2.899 l -0.021,3.096 c 0,0 12.444,12.184 12.105,12.972 L -36.766,1.305 C -37.089,2.128 -54.353,1.008 -54.353,1.008 l -2.671,2.562 c -0.352,0.35 -0.71,0.694 -1.073,1.03 l -1.821,1.748 c 0,0 0.194,17.182 -0.617,17.507 l -12.023,4.608 c -0.744,0.274 -10.094,-9.906 -12.067,-12.065 -2.867,0.256 -5.778,0.237 -8.69,-0.075 -2.333,2.302 -11.763,11.544 -12.476,11.238 l -11.946,-5.14 c -0.728,-0.314 -0.158,-13.431 -0.007,-16.651 -2.222,-1.906 -4.231,-4.01 -6.011,-6.274 -2.976,-0.019 -16.895,-0.143 -17.187,-0.868 l -4.886,-11.911 c -0.352,-0.817 12.461,-12.063 12.461,-12.063 l 0.022,-2.341 c -0.009,-0.625 -0.001,-1.253 0.017,-1.88 l 0.032,-3.482 c 0,0 -12.468,-12.194 -12.141,-12.954 l 5.042,-11.719 c 0.351,-0.814 17.624,0.28 17.624,0.28 l 2.326,-2.225 c 0.598,-0.607 1.213,-1.195 1.842,-1.763 l 1.382,-1.323 c 0,0 -0.19,-17.184 0.612,-17.48 l 12.017,-4.664 c 0.729,-0.26 10.027,9.87 12.035,12.068 2.891,-0.26 5.824,-0.24 8.76,0.076 2.367,-2.342 11.72,-11.529 12.43,-11.224 l 11.965,5.147 c 0.711,0.307 0.14,13.316 -0.016,16.602 2.242,1.92 4.266,4.042 6.058,6.325 3.009,0.016 16.856,0.132 17.144,0.855 l 4.908,11.924 c 0.35,0.816 -12.482,12.054 -12.482,12.054"
         style="fill:#40406b;fill-opacity:1;fill-rule:nonzero;stroke:none"
         id="path3392"
         inkscape:connector-curvature="0" /></g></g></svg>